<svg width="55" height="54" viewBox="0 0 55 54" fill="none" xmlns="http://www.w3.org/2000/svg">
<circle cx="27.3901" cy="26.9917" r="24.4917" stroke="#5D5DF3" stroke-width="5"/>
<path d="M27.3911 15.2969C21.6552 15.2961 16.7656 19.5629 15.8472 25.3703C14.9289 31.1777 18.2529 36.8109 23.695 38.6698C24.2811 38.778 24.491 38.4089 24.491 38.0915C24.491 37.8065 24.4816 37.0514 24.4781 36.0474C21.2251 36.7689 20.5381 34.4387 20.5381 34.4387C20.324 33.7136 19.8636 33.0912 19.2404 32.6844C18.1854 31.9401 19.3213 31.957 19.3213 31.957C20.0724 32.0626 20.7334 32.519 21.1114 33.193C21.4313 33.7897 21.9703 34.2306 22.6087 34.4178C23.247 34.6049 23.9318 34.5228 24.5109 34.1898C24.5653 33.5814 24.8292 33.0127 25.2553 32.5858C22.6599 32.284 19.9309 31.2548 19.9309 26.6581C19.9165 25.4692 20.3469 24.3198 21.1336 23.4466C20.7777 22.4117 20.8196 21.2766 21.2508 20.2723C21.2508 20.2723 22.232 19.9489 24.4652 21.4999C26.3805 20.9613 28.4018 20.9613 30.3171 21.4999C32.5514 19.9477 33.5314 20.2723 33.5314 20.2723C33.9647 21.2761 34.0066 22.412 33.6486 23.4466C34.4382 24.3198 34.8683 25.4721 34.849 26.6629C34.849 31.2716 32.1177 32.284 29.5129 32.581C30.0748 33.1702 30.363 33.9786 30.3042 34.8006C30.3042 36.4045 30.2901 37.6983 30.2901 38.0915C30.2901 38.4125 30.4988 38.7852 31.0954 38.6674C36.5353 36.8053 39.8558 31.1718 38.9355 25.3659C38.0153 19.5601 33.1259 15.2955 27.3911 15.2969Z" fill="#5D5DF3"/>
</svg>
