<svg width="55" height="55" viewBox="0 0 55 55" fill="none" xmlns="http://www.w3.org/2000/svg">
<circle cx="27.5542" cy="27.8589" r="24.4917" stroke="#5D5DF3" stroke-width="5"/>
<path d="M27.5493 39.5569C24.354 39.5569 23.9774 39.54 22.7304 39.4855C21.7581 39.4536 20.7983 39.2562 19.8924 38.9019C18.3251 38.2928 17.0857 37.0548 16.4763 35.4894C16.1351 34.5816 15.9511 33.6224 15.9321 32.6529C15.8594 31.4104 15.8594 31.0031 15.8594 27.8371C15.8594 24.6374 15.8763 24.2639 15.9321 23.0252C15.9515 22.057 16.1355 21.0992 16.4763 20.1926C17.085 18.6252 18.3264 17.3861 19.8963 16.7788C20.8037 16.4367 21.7632 16.2524 22.733 16.2341C23.9735 16.1641 24.3813 16.1641 27.5493 16.1641C30.7705 16.1641 31.1407 16.1809 32.3681 16.2341C33.3404 16.2526 34.3025 16.4368 35.2127 16.7788C36.7821 17.3868 38.0232 18.6256 38.6326 20.1926C38.9796 21.1124 39.1646 22.0852 39.1794 23.068C39.2522 24.3106 39.2522 24.7165 39.2522 27.8812C39.2522 31.0459 39.234 31.4609 39.1794 32.6892C39.1601 33.6596 38.9756 34.6197 38.6339 35.5284C38.023 37.0948 36.7818 38.3332 35.2127 38.9421C34.3038 39.2821 33.3437 39.4659 32.3733 39.4855C31.1329 39.5569 30.7263 39.5569 27.5493 39.5569ZM27.5051 18.2172C24.3281 18.2172 23.9981 18.2328 22.7577 18.2886C22.0173 18.2984 21.2841 18.4348 20.5899 18.6919C19.5648 19.0836 18.7536 19.8903 18.3571 20.9124C18.0976 21.6132 17.961 22.3533 17.9532 23.1004C17.8843 24.3572 17.8843 24.6867 17.8843 27.8371C17.8843 30.9499 17.896 31.3274 17.9532 32.5764C17.9648 33.3159 18.1014 34.0482 18.3571 34.7424C18.7542 35.7638 19.5652 36.5699 20.5899 36.9616C21.2836 37.2204 22.0172 37.3569 22.7577 37.3649C24.015 37.4376 24.3462 37.4376 27.5051 37.4376C30.6913 37.4376 31.0212 37.422 32.2512 37.3649C32.9921 37.3559 33.7259 37.2195 34.4203 36.9616C35.4393 36.5665 36.2452 35.7622 36.6414 34.745C36.9004 34.0436 37.0371 33.3031 37.0454 32.5556H37.0597C37.1155 31.3157 37.1155 30.9849 37.1155 27.8164C37.1155 24.6478 37.1012 24.3144 37.0454 23.0758C37.0337 22.3371 36.8972 21.6057 36.6414 20.9124C36.2461 19.8937 35.4401 19.0879 34.4203 18.6919C33.726 18.4335 32.9922 18.297 32.2512 18.2886C30.9952 18.2172 30.6666 18.2172 27.5051 18.2172ZM27.5493 33.828C25.1204 33.8296 22.9297 32.3698 21.999 30.1295C21.0683 27.8892 21.5808 25.3097 23.2976 23.5939C25.0143 21.8781 27.5972 21.3641 29.8415 22.2915C32.0858 23.219 33.5496 25.4052 33.5501 27.8306C33.5465 31.1394 30.8628 33.8216 27.5493 33.828ZM27.5493 23.937C25.3972 23.937 23.6526 25.6791 23.6526 27.828C23.6526 29.977 25.3972 31.7191 27.5493 31.7191C29.7013 31.7191 31.4459 29.977 31.4459 27.828C31.4409 25.6812 29.6993 23.942 27.5493 23.937ZM33.7839 23.0123C33.0116 23.0094 32.3875 22.3827 32.3889 21.6115C32.3903 20.8403 33.0168 20.2159 33.7891 20.2159C34.5614 20.2159 35.1878 20.8403 35.1893 21.6115C35.1896 21.9835 35.0416 22.3404 34.7779 22.6033C34.5142 22.8661 34.1565 23.0133 33.7839 23.0123Z" fill="#5D5DF3"/>
</svg>
