<svg width="54" height="54" viewBox="0 0 54 54" fill="none" xmlns="http://www.w3.org/2000/svg">
<circle cx="26.9917" cy="26.9917" r="24.4917" stroke="#5D5DF3" stroke-width="5"/>
<path d="M28.2928 38.6897H23.0945V23.0945H28.2928V25.6937C29.4009 24.2839 31.0813 23.4435 32.8739 23.4025C36.0977 23.4204 38.699 26.0438 38.6896 29.2676V38.6897H33.4912V29.9174C33.2833 28.4652 32.038 27.3878 30.571 27.391C29.9294 27.4112 29.3237 27.6922 28.8938 28.1689C28.4639 28.6457 28.2469 29.2771 28.2928 29.9174V38.6897ZM20.4953 38.6897H15.2969V23.0945H20.4953V38.6897ZM17.8961 20.4953C16.4606 20.4953 15.2969 19.3316 15.2969 17.8961C15.2969 16.4606 16.4606 15.2969 17.8961 15.2969C19.3316 15.2969 20.4953 16.4606 20.4953 17.8961C20.4953 18.5854 20.2214 19.2465 19.734 19.734C19.2465 20.2214 18.5854 20.4953 17.8961 20.4953Z" fill="#5D5DF3"/>
</svg>
