<svg width="55" height="55" viewBox="0 0 55 55" fill="none" xmlns="http://www.w3.org/2000/svg">
<circle cx="27.9526" cy="27.8589" r="24.4917" stroke="#5D5DF3" stroke-width="5"/>
<path d="M27.9542 39.5569C21.4945 39.5569 16.2578 34.3202 16.2578 27.8605C16.2578 21.4007 21.4945 16.1641 27.9542 16.1641C34.414 16.1641 39.6506 21.4007 39.6506 27.8605C39.6435 34.3173 34.411 39.5498 27.9542 39.5569ZM21.8803 26.1563C21.1804 26.1567 20.5516 26.5841 20.2937 27.2347C20.0358 27.8854 20.2011 28.6275 20.7106 29.1073C20.8453 29.2349 21.0003 29.3392 21.1691 29.4161C21.1544 29.5869 21.1544 29.7587 21.1691 29.9296C21.1691 32.5495 24.2277 34.6806 27.987 34.6806C31.7462 34.6806 34.806 32.5495 34.806 29.9296C34.8196 29.7587 34.8196 29.587 34.806 29.4161C35.5159 29.0712 35.8913 28.2798 35.7095 27.5118C35.5277 26.7438 34.8372 26.2048 34.048 26.2148H33.986C33.567 26.2303 33.1685 26.3998 32.8667 26.6908C31.5363 25.7861 29.9721 25.2864 28.3636 25.2522L29.1239 21.6029L31.6245 22.1292C31.689 22.7223 32.1894 23.1719 32.786 23.1725C32.8286 23.1725 32.8711 23.1702 32.9135 23.1655C33.5336 23.1033 33.996 22.5657 33.9648 21.9432C33.9336 21.3207 33.4198 20.8321 32.7965 20.8321C32.7523 20.8332 32.7082 20.8367 32.6644 20.8426C32.2936 20.882 31.9639 21.0957 31.7766 21.4181L28.9133 20.8426C28.8879 20.8372 28.8621 20.8344 28.8361 20.8344C28.667 20.8364 28.5216 20.9547 28.4852 21.1198L27.6103 25.182C25.982 25.205 24.3961 25.7048 23.0487 26.6195C22.733 26.3211 22.3147 26.1553 21.8803 26.1563ZM28.1647 33.1519C28.0992 33.1519 28.0326 33.1519 27.9671 33.1519C27.9016 33.1519 27.8349 33.1519 27.7694 33.1519C26.7987 33.1482 25.8551 32.8311 25.0792 32.2478C25.0257 32.1832 25.0002 32.1 25.0084 32.0165C25.0165 31.9331 25.0576 31.8563 25.1225 31.8033C25.1791 31.7574 25.2497 31.7322 25.3225 31.732C25.3954 31.732 25.4661 31.7572 25.5225 31.8033C26.1782 32.2838 26.9706 32.5416 27.7834 32.539C27.8404 32.539 27.8973 32.539 27.9542 32.539C28.0232 32.539 28.0934 32.539 28.1624 32.539C28.9648 32.5404 29.7472 32.2891 30.3988 31.8209C30.4604 31.758 30.5447 31.7226 30.6327 31.7226C30.7207 31.7226 30.805 31.758 30.8666 31.8209C30.9935 31.952 30.9909 32.1608 30.8608 32.2887V32.2419C30.0844 32.8292 29.1382 33.1482 28.1647 33.1507V33.1519ZM30.6526 30.2933H30.6339L30.6432 30.2477C30.1287 30.2126 29.708 29.8242 29.6318 29.3142C29.5556 28.8042 29.8445 28.3098 30.3263 28.1259C30.8081 27.942 31.3529 28.118 31.636 28.549C31.9191 28.98 31.8642 29.55 31.5041 29.919C31.2947 30.1476 31.0022 30.2825 30.6923 30.2933H30.6514H30.6526ZM25.229 30.1997C24.583 30.1997 24.0593 29.6761 24.0593 29.0301C24.0593 28.3841 24.583 27.8605 25.229 27.8605C25.8749 27.8605 26.3986 28.3841 26.3986 29.0301C26.3986 29.6761 25.8749 30.1997 25.229 30.1997Z" fill="#5D5DF3"/>
</svg>
