<?xml version="1.0" standalone="no"?>
<!DOCTYPE svg PUBLIC "-//W3C//DTD SVG 1.1//EN" "http://www.w3.org/Graphics/SVG/1.1/DTD/svg11.dtd">
<svg xmlns="http://www.w3.org/2000/svg" width="233" height="59" viewBox="0 0 233 59" fill="none">
<path d="M24.995 30.842L26.645 21.7852H17.1778L17.4384 20.1713C18.4806 13.5356 24.2999 12.6389 27.427 12.6389C28.7298 12.6389 29.5983 12.8182 29.5983 12.8182L31.5094 3.13299C28.7312 1.76591 25.6222 1 22.3396 1C10.5541 1 1 10.8639 1 23.0317C1 31.8102 5.97369 39.389 13.1702 42.9304L15.4409 30.8422H24.995V30.842Z" fill="#0033CC" stroke="#0033CC" stroke-miterlimit="10"/>
<path d="M31.5072 3.13477L29.5961 12.82C29.5961 12.82 28.7276 12.6407 27.4248 12.6407C24.2977 12.6407 18.4787 13.5374 17.4362 20.1731L17.1756 21.7869H26.6428L24.9928 30.8438H15.4387L13.168 42.932C15.946 44.2988 19.0549 45.0647 22.3373 45.0647C34.1228 45.0647 43.6769 35.2006 43.6769 23.0333C43.6769 14.2545 38.7034 6.67596 31.5072 3.13477V3.13477Z" stroke="#0033CC" stroke-miterlimit="10"/>
<path d="M46.8289 26.1818H50.869L47.688 42.9312H43.6797L46.8289 26.1818ZM48.0695 19.6133H52.1095L51.4098 23.3245H47.3698L48.0695 19.6133Z" fill="#0033CC"/>
<path d="M55.2584 26.1831H59.1713L58.885 27.6939C58.7259 28.5151 58.4716 29.336 58.4716 29.336H58.535C59.4258 27.7594 61.8752 25.7891 64.7064 25.7891C67.5694 25.7891 69.6053 27.1356 69.6053 30.3542C69.6053 30.9781 69.4462 31.7992 69.319 32.5216L67.3785 42.9326H63.3387L65.1838 33.1785C65.2792 32.6201 65.3746 32.0618 65.3746 31.6349C65.3746 30.2227 64.6112 29.5986 63.3387 29.5986C60.5394 29.5986 58.1218 32.3243 57.5491 35.3789L56.1494 42.9326H52.1094L55.2584 26.1831Z" fill="#0033CC"/>
<path d="M80.9946 25.7877C82.7442 25.7877 84.6527 26.4773 85.48 28.0866H85.5435C85.5435 28.0866 85.5754 27.5283 85.6709 27.0685L87.0705 19.6133H91.1103L86.7206 42.9315H82.9033L83.1579 41.6835C83.285 40.9936 83.4441 40.4353 83.4441 40.4353H83.3804C82.299 42.0773 80.3903 43.3256 78.1636 43.3256C74.2507 43.3256 71.9922 40.5998 71.9922 36.33C71.9922 30.0573 76.2866 25.7877 80.9946 25.7877ZM79.3404 39.8114C82.0443 39.8114 84.4938 36.6585 84.4938 33.1114C84.4938 31.0752 83.5396 29.3674 81.3128 29.3674C78.8952 29.3674 76.0959 31.8634 76.0959 36.0344C76.0957 38.3664 77.3365 39.8114 79.3404 39.8114Z" fill="#0033CC"/>
<path d="M100.493 25.7891C104.852 25.7891 106.983 28.4166 106.983 32.1275C106.983 33.5726 106.41 35.3461 106.41 35.3461H95.2446C95.2129 35.5759 95.2129 35.773 95.2129 35.97C95.2129 38.1049 96.6125 39.7797 99.221 39.7797C101.83 39.7797 104.247 37.9409 104.247 37.9409L105.329 41.1265C105.329 41.1265 102.593 43.3269 98.9984 43.3269C93.9404 43.3269 91.1094 40.1738 91.1094 36.1343C91.1094 30.4527 95.0857 25.7891 100.493 25.7891ZM102.943 32.4888C102.943 32.4888 103.007 32.1275 103.007 31.7664C103.007 30.0259 101.957 29.0077 100.43 29.0077C98.3621 29.0077 96.6762 30.4199 95.8809 32.4891H102.943V32.4888Z" fill="#0033CC"/>
<path d="M111.415 26.1773H115.296L114.755 29.0674C114.628 29.6912 114.437 30.2823 114.437 30.2823H114.469C115.55 27.9834 117.777 25.9473 120.259 25.9473C120.767 25.9473 121.213 26.0128 121.213 26.0128L120.417 30.1181C120.417 30.1181 120.036 30.0525 119.463 30.0525C117.045 30.0525 114.183 32.8441 113.419 36.9821L112.306 42.9265H108.266L111.415 26.1773Z" fill="#0033CC"/>
<path d="M125.68 29.7272H123.676L124.281 26.4103H126.285L126.475 25.4906C127.589 20.1046 131.82 19.4805 133.919 19.4805C134.905 19.4805 135.573 19.579 135.573 19.579L134.874 23.1259C134.874 23.1259 134.556 23.0604 134.078 23.0604C132.933 23.0604 130.802 23.389 130.42 25.8192L130.324 26.4105H133.792L133.188 29.7274H129.689L127.207 42.9302H123.199L125.68 29.7272Z" fill="#0033CC"/>
<path d="M135.134 36.72L137.106 26.1777H141.146L139.333 35.8006C139.206 36.4574 139.142 37.0813 139.142 37.5084C139.142 38.7566 139.683 39.5118 141.178 39.5118C143.945 39.5118 146.236 36.6872 146.777 33.7317L148.176 26.178H152.216L149.067 42.9274H145.154L145.44 41.4169C145.599 40.5957 145.854 39.8076 145.854 39.8076H145.79C144.868 41.3511 142.609 43.3217 139.746 43.3217C137.106 43.3217 134.879 42.1065 134.879 38.7566C134.879 38.165 135.006 37.4424 135.134 36.72Z" fill="#0033CC"/>
<path d="M153.24 37.6236L156.613 19.6133H160.693L157.448 36.9603C157.352 37.4247 157.256 38.0218 157.256 38.3202C157.256 39.4149 157.962 39.5806 158.637 39.5806C158.958 39.5806 159.215 39.5474 159.215 39.5474L158.508 43.229C158.508 43.229 157.93 43.3284 157.352 43.3284C155.167 43.3284 153.047 42.4664 153.047 39.3152C153.047 38.8511 153.111 38.2872 153.24 37.6236Z" fill="#0033CC"/>
<path d="M31.5117 45.6672L38.641 56.5325C40.2197 58.9369 43.1679 59.7179 45.2247 58.2767C47.2874 56.8334 47.6765 53.7192 46.0983 51.3144L38.9678 40.4531" fill="#0033CC"/>
<path d="M162.5 38.7363H166.564L165.77 42.9318H161.738L162.5 38.7363Z" fill="#0033CC"/>
<path d="M179.255 25.8164C183.636 25.8164 185.541 28.2746 185.541 28.2746L183.414 30.8966C183.414 30.8966 181.922 29.3562 179.445 29.3562C176.048 29.3562 173.318 32.339 173.318 35.6492C173.318 37.9764 174.842 39.7791 177.477 39.7791C180.207 39.7791 182.683 37.6488 182.683 37.6488L183.763 40.8609C183.763 40.8609 181.032 43.3191 177.001 43.3191C172.08 43.3191 169.223 40.1727 169.223 35.9115C169.223 30.5692 173.572 25.8164 179.255 25.8164Z" fill="#0033CC"/>
<path d="M196.524 25.8164C201.191 25.8164 204.493 28.799 204.493 33.191C204.493 39.0581 199.476 43.3189 194.46 43.3189C189.825 43.3189 186.523 40.369 186.523 35.9113C186.523 30.1101 191.476 25.8164 196.524 25.8164ZM194.524 39.7791C197.413 39.7791 200.397 37.1571 200.397 33.4533C200.397 30.9951 198.778 29.3562 196.492 29.3562C193.603 29.3562 190.587 32.0439 190.587 35.715C190.587 38.2059 192.238 39.7791 194.524 39.7791Z" fill="#0033CC"/>
<path d="M209.186 26.2095H213.091L212.741 28.0123C212.614 28.635 212.392 29.3562 212.392 29.3562H212.456C213.472 27.6847 215.598 25.8164 218.138 25.8164C220.71 25.8164 222.043 27.029 222.424 29.2579H222.488C223.631 27.4551 225.948 25.8164 228.425 25.8164C231.25 25.8164 232.996 27.193 232.996 30.3069C232.996 30.9951 232.901 31.7488 232.742 32.6013L230.806 42.926H226.805L228.647 33.0602C228.774 32.4375 228.806 32.0112 228.806 31.5853C228.806 30.4052 228.361 29.6185 226.996 29.6185C224.393 29.6185 222.424 32.6013 221.853 35.5837L220.456 42.9257H216.424L218.297 33.06C218.424 32.4373 218.456 32.0109 218.456 31.552C218.456 30.405 218.043 29.6182 216.678 29.6182C214.138 29.6182 212.043 32.5353 211.472 35.5834L210.075 42.9255H206.043L209.186 26.2095Z" fill="#0033CC"/>
</svg>