<svg id="Warstwa_1" data-name="Warstwa 1" xmlns="http://www.w3.org/2000/svg" viewBox="0 0 1204.69 430.57"><defs><style>.cls-1{fill:#1e1c23;}.cls-2{fill:#fff;}.cls-3{fill:#4e4ef2;}</style></defs><path class="cls-1" d="M494.39,213.72a30.74,30.74,0,0,0,3.56-14.2c0-8.19-1.74-14.91-5.17-20a42.09,42.09,0,0,0-13-12.46,74.85,74.85,0,0,0-17.14-7.64c-6.12-1.87-11.95-3.73-17.33-5.52a62.83,62.83,0,0,1-13.39-6,11.31,11.31,0,0,1-5.64-10.12c0-4,1.94-7.78,5.76-11.15s9.16-5,15.94-5,12.15,1.85,16,5.5,5.59,8.34,5.73,14.34h23.86a44.93,44.93,0,0,0-3.25-16.48A40,40,0,0,0,481,111.19a43.14,43.14,0,0,0-14.41-9.1A51.07,51.07,0,0,0,448,98.83a57.48,57.48,0,0,0-19.92,3.26,48.88,48.88,0,0,0-15,8.57,37.15,37.15,0,0,0-9.51,12.43,34.67,34.67,0,0,0-3.35,14.9c0,7.89,1.73,14.31,5.15,19.08a41.76,41.76,0,0,0,13,11.8,73.7,73.7,0,0,0,17.13,7.21c6.24,1.76,12.08,3.58,17.36,5.41a60,60,0,0,1,13.4,6.37,12,12,0,0,1,5.63,10.55c0,4.62-2,8.71-6,12.15s-10,5.15-17.91,5.15c-7.37,0-13.26-2-17.5-6.05a20.52,20.52,0,0,1-6.4-14.9h-25a46.29,46.29,0,0,0,3.36,17.15A40.63,40.63,0,0,0,412.11,226a43.48,43.48,0,0,0,15.29,9.21,65.35,65.35,0,0,0,41.16-.11,51.39,51.39,0,0,0,15.76-8.9A41.24,41.24,0,0,0,494.39,213.72Z"/><path class="cls-1" d="M601.08,214.67a49.65,49.65,0,0,0,5.64-13.3h-23.9a23.34,23.34,0,0,1-4.82,7.06,29,29,0,0,1-7,5,22.86,22.86,0,0,1-10.71,2.29A25,25,0,0,1,541.64,208c-5-5.12-7.49-12-7.49-20.59s2.52-15.48,7.49-20.6a25.06,25.06,0,0,1,18.63-7.72A22,22,0,0,1,571,161.48a31,31,0,0,1,7,5.09,24.29,24.29,0,0,1,4.81,6.83h23.91a50,50,0,0,0-5.64-13.3,51.41,51.41,0,0,0-10.22-12.17A48.6,48.6,0,0,0,577,139.46a44.64,44.64,0,0,0-16.7-3.14,46.94,46.94,0,0,0-19.21,4,51.69,51.69,0,0,0-15.87,11,53.25,53.25,0,0,0-10.87,16.2,51.14,51.14,0,0,0,0,39.75,53.36,53.36,0,0,0,10.87,16.21,51.71,51.71,0,0,0,15.87,11,46.71,46.71,0,0,0,19.21,4,44.49,44.49,0,0,0,16.7-3.15,48.62,48.62,0,0,0,13.9-8.46A51.73,51.73,0,0,0,601.08,214.67Z"/><path class="cls-1" d="M696,233l1.95,4.38h17.5V137.42h-17.5L696,141.8a5.22,5.22,0,0,1-7.84,2.09c-1.18-.85-2.34-1.65-3.21-2.16A60.89,60.89,0,0,0,676,138a37.07,37.07,0,0,0-11.66-1.72,43.16,43.16,0,0,0-17.78,3.79,46.1,46.1,0,0,0-14.86,10.63,52.61,52.61,0,0,0-10.22,16.2,56.9,56.9,0,0,0,0,40.89A52.19,52.19,0,0,0,631.72,224a46,46,0,0,0,14.86,10.63,43.1,43.1,0,0,0,17.78,3.8A39.44,39.44,0,0,0,676,236.84a43,43,0,0,0,8.88-3.79c.88-.51,2-1.31,3.22-2.17A5.22,5.22,0,0,1,696,233Zm-28.32-17.26A25,25,0,0,1,649,208c-5-5.12-7.49-12-7.49-20.59s2.52-15.48,7.49-20.6a26.33,26.33,0,0,1,37.25,0c5,5.12,7.49,12.05,7.49,20.6s-2.52,15.47-7.49,20.59A25,25,0,0,1,667.66,215.71Z"/><path class="cls-1" d="M862.79,150.42A46.19,46.19,0,0,0,847.6,140a48,48,0,0,0-37.66.32,51.81,51.81,0,0,0-15.87,11,53.43,53.43,0,0,0-10.87,16.2,51.14,51.14,0,0,0,0,39.75,53.36,53.36,0,0,0,10.87,16.21,51.71,51.71,0,0,0,15.87,11,46.71,46.71,0,0,0,19.21,4,43.37,43.37,0,0,0,15.72-2.82,51.91,51.91,0,0,0,13-7.28,48.1,48.1,0,0,0,9.77-10.1,45.7,45.7,0,0,0,5.6-10.27h-25a20.32,20.32,0,0,1-4.35,3.84,26.14,26.14,0,0,1-6,2.74,29,29,0,0,1-8.72,1.14c-6.78,0-12.21-1.77-16.16-5.26a24.47,24.47,0,0,1-7.73-13l-.22-.92h70.87c.11-.84.23-1.72.34-2.65s.3-2.1.45-3.21a25.92,25.92,0,0,0,.21-3.31,55.56,55.56,0,0,0-3.8-20.78A50,50,0,0,0,862.79,150.42Zm-58.83,30,.19-.91A26.78,26.78,0,0,1,812.43,165c4.32-3.94,9.94-5.93,16.72-5.93s12.4,2,16.72,5.93a26.78,26.78,0,0,1,8.28,14.51l.19.91Z"/><path class="cls-1" d="M964.7,233.12l1.89,4.23h17.49V137.42H960.23V192.9c0,6.78-2,12.34-6.05,16.51s-9.29,6.3-15.65,6.3-11.63-2.12-15.65-6.3-6.06-9.72-6.06-16.51V137.42H893v58.79a50.2,50.2,0,0,0,2.93,17.6,38.55,38.55,0,0,0,8.22,13.3,35.55,35.55,0,0,0,12.63,8.42A43.92,43.92,0,0,0,933,238.46a37.85,37.85,0,0,0,11.25-1.62,43.23,43.23,0,0,0,8.88-3.79l4.28-2.37A5.2,5.2,0,0,1,964.7,233.12Z"/><path class="cls-1" d="M1090.74,224a52.35,52.35,0,0,0,10.21-16.2,56.76,56.76,0,0,0,0-40.89,52.77,52.77,0,0,0-10.21-16.2,46.25,46.25,0,0,0-14.87-10.63,43.08,43.08,0,0,0-17.77-3.79,37.13,37.13,0,0,0-11.67,1.72,60.52,60.52,0,0,0-8.93,3.7l-3.88,2.16a5.21,5.21,0,0,1-7.29-2.43l-1.8-4.05H1007V272.64h23.85V227.55l1.27,1.18a35.34,35.34,0,0,0,6.91,5,58.93,58.93,0,0,0,8.13,3.25,35.59,35.59,0,0,0,10.91,1.51,43.06,43.06,0,0,0,17.77-3.8A46.17,46.17,0,0,0,1090.74,224ZM1073.42,208a26.3,26.3,0,0,1-37.25,0c-5-5.12-7.49-12-7.49-20.59s2.51-15.48,7.49-20.6a26.33,26.33,0,0,1,37.25,0c5,5.12,7.49,12.05,7.49,20.6S1078.39,202.86,1073.42,208Z"/><path class="cls-1" d="M712.72,304.91a19.85,19.85,0,0,0,1.41,7.57,20.18,20.18,0,0,0,3.71,6,16.67,16.67,0,0,0,5.27,3.95,14.15,14.15,0,0,0,6.12,1.41,15.34,15.34,0,0,0,5.23-.85,13.35,13.35,0,0,0,4.11-2.33,13.56,13.56,0,0,0,2.94-3.47,17.69,17.69,0,0,0,1.81-4.23h8a24.53,24.53,0,0,1-2.82,6.85,22.15,22.15,0,0,1-4.79,5.64,22.52,22.52,0,0,1-6.52,3.82,21.81,21.81,0,0,1-7.43,1.4,22.68,22.68,0,0,1-9.64-1.89,24,24,0,0,1-7.85-5.55,27.13,27.13,0,0,1-5.27-8.17,26.88,26.88,0,0,1,0-20.25,27.12,27.12,0,0,1,5.27-8.22,24.06,24.06,0,0,1,7.69-5.47,22.4,22.4,0,0,1,9.33-2,21.2,21.2,0,0,1,7.7,1.41,21.51,21.51,0,0,1,6.4,3.82,23.34,23.34,0,0,1,4.71,5.64,24.47,24.47,0,0,1,2.82,6.84h-8.05a18.48,18.48,0,0,0-1.81-4.23,14.17,14.17,0,0,0-2.9-3.46,13.21,13.21,0,0,0-4-2.33,14,14,0,0,0-5-.85,14.15,14.15,0,0,0-6.12,1.41,16.67,16.67,0,0,0-5.27,4,20.26,20.26,0,0,0-3.71,6A19.92,19.92,0,0,0,712.72,304.91Z"/><path class="cls-1" d="M796.53,312.16a20.25,20.25,0,0,1-1.33,7.49,17.69,17.69,0,0,1-3.7,5.84,17.3,17.3,0,0,1-5.52,3.82,17.39,17.39,0,0,1-13.53,0,17.15,17.15,0,0,1-5.51-3.82,17.55,17.55,0,0,1-3.71-5.84,21.76,21.76,0,0,1,0-15,17.55,17.55,0,0,1,3.71-5.84,17.15,17.15,0,0,1,5.51-3.82A17.39,17.39,0,0,1,786,295a17.3,17.3,0,0,1,5.52,3.82,17.69,17.69,0,0,1,3.7,5.84A20.25,20.25,0,0,1,796.53,312.16Zm-7.25,0a12.57,12.57,0,0,0-3.06-8.41,9.37,9.37,0,0,0-3.22-2.42,8.85,8.85,0,0,0-7.57,0,9.37,9.37,0,0,0-3.22,2.42,13,13,0,0,0,0,16.82,9.37,9.37,0,0,0,3.22,2.42,8.85,8.85,0,0,0,7.57,0,9.37,9.37,0,0,0,3.22-2.42,12.57,12.57,0,0,0,3.06-8.41Z"/><path class="cls-1" d="M826.72,293.64a13.82,13.82,0,0,1,5.63,1.17A14.33,14.33,0,0,1,837,298a14.71,14.71,0,0,1,3.1,5,17.42,17.42,0,0,1,1.13,6.36v20.94H834V309.34a8.39,8.39,0,0,0-.44-2.76,9.16,9.16,0,0,0-4.68-5.32,7.72,7.72,0,0,0-3.34-.78,8.34,8.34,0,0,0-3.45.73,9.3,9.3,0,0,0-2.82,1.93,8.89,8.89,0,0,0-2.17,3.56,8.44,8.44,0,0,0-.41,2.69v20.89H809.4V294h5.24l.62,1.4a1.79,1.79,0,0,0,2.66.76c.26-.19.54-.37.82-.55a18.62,18.62,0,0,1,3.27-1.37A15.2,15.2,0,0,1,826.72,293.64Z"/><path class="cls-1" d="M861,318.6a6.09,6.09,0,0,0,1.85,3.83,6.57,6.57,0,0,0,4.59,1.41c2.26,0,3.89-.43,4.91-1.29a4,4,0,0,0,1.53-3.14,2.69,2.69,0,0,0-1.45-2.46,14.68,14.68,0,0,0-3.58-1.41c-1.42-.37-3-.76-4.63-1.17a19.41,19.41,0,0,1-4.63-1.73,10.67,10.67,0,0,1-3.58-3,8.16,8.16,0,0,1-1.45-5.11,10.24,10.24,0,0,1,.88-4.23,10.64,10.64,0,0,1,2.5-3.46,11.52,11.52,0,0,1,3.91-2.33,14.79,14.79,0,0,1,5.19-.85q6.36,0,9.66,3.06a11.75,11.75,0,0,1,3.63,8.21H873a5.3,5.3,0,0,0-1.81-3.14,7.61,7.61,0,0,0-8.42,0,3.67,3.67,0,0,0-1.45,2.78,2.72,2.72,0,0,0,1.45,2.46,14.76,14.76,0,0,0,3.59,1.41c1.42.37,3,.76,4.62,1.16a20.13,20.13,0,0,1,4.63,1.73,10.94,10.94,0,0,1,3.59,3,8.28,8.28,0,0,1,1.45,5.12,10.54,10.54,0,0,1-3.47,8q-3.45,3.23-9.82,3.22c-4.45,0-7.8-1.05-10-3.14s-3.45-5.07-3.67-8.94Z"/><path class="cls-1" d="M907.87,330.68a13.78,13.78,0,0,1-5.68-1.17,14.29,14.29,0,0,1-4.58-3.22,14.71,14.71,0,0,1-3.1-5,17.21,17.21,0,0,1-1.13-6.36V294h7.24V315a8.69,8.69,0,0,0,.69,3.46,9,9,0,0,0,1.85,2.82,8.61,8.61,0,0,0,2.7,1.89,7.73,7.73,0,0,0,3.22.69,8.48,8.48,0,0,0,3.38-.69,8.9,8.9,0,0,0,2.82-1.89,9.42,9.42,0,0,0,1.93-2.82,8.23,8.23,0,0,0,.73-3.46V294h7.24v36.24H920l-.62-1.4a1.79,1.79,0,0,0-2.66-.76c-.26.19-.54.37-.83.55a14.33,14.33,0,0,1-3.26,1.41A16.25,16.25,0,0,1,907.87,330.68Z"/><path class="cls-1" d="M947.46,330.28h-7.24V279.55h7.24Z"/><path class="cls-1" d="M972.43,318.2a5.5,5.5,0,0,0,5.64,5.64c.27,0,.55,0,.84,0a7.21,7.21,0,0,0,.85-.13,2.54,2.54,0,0,0,.72-.24v6.44a5,5,0,0,1-1.12.41,9.19,9.19,0,0,1-2.9.4,11.18,11.18,0,0,1-4.47-.89,10.68,10.68,0,0,1-3.58-2.49,11.25,11.25,0,0,1-2.38-3.91,15,15,0,0,1-.85-5.19V300.89h-6.44V294h2.82a4.69,4.69,0,0,0,4.83-4.83v-4.83h6V294h8.05v6.85h-8.05Z"/><path class="cls-1" d="M996.62,288.41a4.4,4.4,0,1,1,3.14-1.29A4.26,4.26,0,0,1,996.62,288.41Zm3.62,41.87H993V294h7.24Z"/><path class="cls-1" d="M1032.47,293.64a13.82,13.82,0,0,1,5.63,1.17,14.33,14.33,0,0,1,4.63,3.22,14.71,14.71,0,0,1,3.1,5,17.42,17.42,0,0,1,1.13,6.36v20.94h-7.25V309.34a8.39,8.39,0,0,0-.44-2.76,9.16,9.16,0,0,0-4.68-5.32,7.72,7.72,0,0,0-3.34-.78,8.34,8.34,0,0,0-3.45.73,9.3,9.3,0,0,0-2.82,1.93,8.92,8.92,0,0,0-2.17,3.55,8.55,8.55,0,0,0-.41,2.7v20.89h-7.25V294h5.24l.62,1.4a1.79,1.79,0,0,0,2.66.76c.26-.19.54-.37.82-.55a18.62,18.62,0,0,1,3.27-1.37A15.2,15.2,0,0,1,1032.47,293.64Z"/><path class="cls-1" d="M1093.14,294v34.63a15.81,15.81,0,0,1-1.17,6.12,14.39,14.39,0,0,1-3.3,4.87,14.64,14.64,0,0,1-5.19,3.18,19.76,19.76,0,0,1-6.85,1.13,18,18,0,0,1-6-.93,16.33,16.33,0,0,1-4.63-2.46,13.86,13.86,0,0,1-3.26-3.58,14.6,14.6,0,0,1-1.85-4.31h7.25a8.59,8.59,0,0,0,8.45,4.83,9.27,9.27,0,0,0,6.77-2.45,8.6,8.6,0,0,0,2.49-6.4V325a11.63,11.63,0,0,1-2.49,2,15.12,15.12,0,0,1-3.14,1.41,14.53,14.53,0,0,1-4.38.6,15,15,0,0,1-5.54-1,16.82,16.82,0,0,1-6.11-4.09,18.5,18.5,0,0,1,0-25.21,16.81,16.81,0,0,1,6.08-4.08,16.32,16.32,0,0,1,10.23-.39,18.82,18.82,0,0,1,3.26,1.37c.29.18.56.36.83.55a1.79,1.79,0,0,0,2.66-.76l.61-1.4Zm-16.43,28.19a8.85,8.85,0,0,0,3.75-.85,10.08,10.08,0,0,0,3.18-2.34,12,12,0,0,0,2.21-3.46,10.93,10.93,0,0,0,0-8.45,12,12,0,0,0-2.21-3.46,9.91,9.91,0,0,0-3.22-2.34,8.85,8.85,0,0,0-7.57,0,9.71,9.71,0,0,0-3.22,2.34,12,12,0,0,0-2.22,3.46,11,11,0,0,0,0,8.45,11.7,11.7,0,0,0,2.26,3.46,10.36,10.36,0,0,0,3.22,2.34A9,9,0,0,0,1076.71,322.23Z"/><line class="cls-2" x1="260.13" y1="292.42" x2="260.13" y2="292.42"/><path class="cls-3" d="M175.47,321.52l-15.08-8.71-15.08-8.7a4.88,4.88,0,0,0-7.32,4.23v34.83a4.87,4.87,0,0,0,7.3,4.22l15.1-8.71L175.47,330A4.87,4.87,0,0,0,175.47,321.52Z"/><path class="cls-3" d="M324.17,292.45V184.25h0V45.68a7,7,0,0,0-10.45-6L292.13,52.11l-32,18.49-32,18.49-32,18.49-32,18.49-32,18.49h0v0l-32,18.49L78.43,175.51a7,7,0,0,0,0,12.06L100,200l28.27,16.31a7.56,7.56,0,0,1,3.77,6.54v57.49a7,7,0,0,0,10.44,6L164.08,274l24.42-14.11a5.19,5.19,0,0,1,3-.62,5.31,5.31,0,0,1,4.61,5.36v52.77a7,7,0,0,0,10.45,6l21.57-12.46,28.22-16.29a7.54,7.54,0,0,1,7.55,0l28.26,16.31,21.57,12.45a7,7,0,0,0,10.45-6ZM188.42,186,164.05,200l-24.42,14.11a5.12,5.12,0,0,1-7.6-4.47V153.23a5,5,0,0,1,7.56-4.3l48.83,28.18a5.18,5.18,0,0,1,1.85,1.87A5.11,5.11,0,0,1,188.42,186Zm7.65-69.7a5,5,0,0,1,7.56-4.31l48.83,28.19a5.13,5.13,0,0,1,0,8.84L228.09,163l-24.42,14.1a5,5,0,0,1-2.49.65,5.11,5.11,0,0,1-5.11-5.11Zm56.39,106.67L228.1,237,203.68,251.1a5.12,5.12,0,0,1-7.6-4.47V190.2a5,5,0,0,1,7.57-4.3l48.82,28.18a5.21,5.21,0,0,1,1.86,1.87A5.11,5.11,0,0,1,252.46,222.92Zm7.66-41.39V153.22a5,5,0,0,1,7.57-4.3L292.14,163,316.5,177.1a5.12,5.12,0,0,1,0,8.84L292.14,200l-24.42,14.11a5.12,5.12,0,0,1-7.6-4.47Zm56.39,78.36L292.15,274l-24.43,14.11a5.1,5.1,0,0,1-7.59-4.46V227.17a5.14,5.14,0,0,1,.67-2.46,5,5,0,0,1,6.89-1.84L292.14,237l24.37,14.07a5.11,5.11,0,0,1,0,8.83Z"/><path class="cls-1" d="M738.23,99.93h-10.9v18.92H733a5.21,5.21,0,0,1,5.2,5.21V237.35h23.86V99.93Z"/></svg>