<svg width="55" height="54" viewBox="0 0 55 54" fill="none" xmlns="http://www.w3.org/2000/svg">
<circle cx="27.7886" cy="26.9917" r="24.4917" stroke="#5D5DF3" stroke-width="5"/>
<path d="M41.4064 19.1455C40.4569 19.5584 39.4452 19.8321 38.3905 19.9649C39.4756 19.3227 40.3037 18.3134 40.6931 17.0969C39.6814 17.6949 38.5644 18.1173 37.374 18.353C36.4134 17.339 35.0443 16.7109 33.5507 16.7109C30.6529 16.7109 28.3199 19.0427 28.3199 21.9012C28.3199 22.3125 28.3551 22.708 28.4412 23.0845C24.0897 22.8741 20.2393 20.8065 17.6526 17.6569C17.201 18.4336 16.9361 19.3227 16.9361 20.2797C16.9361 22.0768 17.8696 23.6698 19.2611 24.592C18.4202 24.5762 17.5952 24.3342 16.8963 23.953C16.8963 23.9688 16.8963 23.9893 16.8963 24.0099C16.8963 26.5315 18.7106 28.6259 21.0898 29.1084C20.6637 29.2239 20.1994 29.2793 19.7175 29.2793C19.3824 29.2793 19.0441 29.2603 18.7265 29.1907C19.4047 31.2456 21.3291 32.7563 23.6174 32.8054C21.8366 34.1864 19.5755 35.0185 17.1276 35.0185C16.6984 35.0185 16.2867 34.9995 15.875 34.9473C18.1936 36.4295 20.9414 37.2759 23.9046 37.2759C33.5363 37.2759 38.8022 29.3663 38.8022 22.5102C38.8022 22.2809 38.7942 22.0594 38.783 21.8395C39.8218 21.1087 40.6947 20.1959 41.4064 19.1455Z" fill="#5D5DF3"/>
</svg>
