<svg width="55" height="54" viewBox="0 0 55 54" fill="none" xmlns="http://www.w3.org/2000/svg">
<circle cx="27.187" cy="26.9917" r="24.4917" stroke="#5D5DF3" stroke-width="5"/>
<path d="M27.2031 35.0895H27.1797C27.1072 35.0895 19.858 35.0757 18.029 34.5845C17.0232 34.3165 16.2378 33.5393 15.9674 32.5445C15.6385 30.7095 15.4797 28.8486 15.493 26.9851C15.4845 25.1185 15.6476 23.255 15.9803 21.4176C16.2581 20.4219 17.0401 19.6411 18.0442 19.3568C19.8229 18.8945 26.8723 18.8945 27.1715 18.8945H27.1961C27.2697 18.8945 34.5377 18.9084 36.348 19.3996C37.3516 19.6689 38.1354 20.4446 38.4072 21.4373C38.7465 23.2791 38.9058 25.1489 38.8828 27.0209C38.891 28.8853 38.7275 30.7465 38.3943 32.5815C38.1204 33.575 37.3345 34.3505 36.3293 34.6191C34.5529 35.0849 27.5023 35.0895 27.2031 35.0895ZM24.8657 23.5235L24.8599 30.4583L30.951 26.9909L24.8657 23.5235Z" fill="#5D5DF3"/>
</svg>
