<svg xmlns="http://www.w3.org/2000/svg" xmlns:xlink="http://www.w3.org/1999/xlink" width="120" zoomAndPan="magnify" viewBox="0 0 150 149.999998" height="120" preserveAspectRatio="xMidYMid meet" version="1.0"><defs><clipPath id="be3418d3e1"><path d="M 27.015625 52 L 38 52 L 38 90 L 27.015625 90 Z M 27.015625 52 " clip-rule="nonzero"/></clipPath><clipPath id="d25f36bc1f"><path d="M 112.03125 52.535156 L 122.984375 52.535156 L 122.984375 89.738281 L 112.03125 89.738281 Z M 112.03125 52.535156 " clip-rule="nonzero"/></clipPath><clipPath id="5317f79dda"><path d="M 42 52 L 108 52 L 108 128.375 L 42 128.375 Z M 42 52 " clip-rule="nonzero"/></clipPath><clipPath id="6b54aa5e98"><path d="M 42 8.375 L 108 8.375 L 108 48 L 42 48 Z M 42 8.375 " clip-rule="nonzero"/></clipPath></defs><g clip-path="url(#be3418d3e1)"><path fill="#ffffff" d="M 32.476562 52.636719 C 29.46875 52.636719 27.046875 54.960938 27.046875 58.003906 L 27.046875 84.203125 C 27.046875 87.15625 29.46875 89.570312 32.476562 89.570312 C 35.480469 89.570312 37.945312 87.15625 37.945312 84.203125 L 37.945312 58.003906 C 37.945312 54.960938 35.480469 52.636719 32.476562 52.636719 " fill-opacity="1" fill-rule="nonzero"/></g><g clip-path="url(#d25f36bc1f)"><path fill="#ffffff" d="M 117.511719 52.636719 C 114.550781 52.636719 112.128906 54.960938 112.128906 58.003906 L 112.128906 84.203125 C 112.128906 87.15625 114.550781 89.570312 117.511719 89.570312 C 120.515625 89.570312 122.984375 87.15625 122.984375 84.203125 L 122.984375 58.003906 C 122.984375 54.960938 120.515625 52.636719 117.511719 52.636719 " fill-opacity="1" fill-rule="nonzero"/></g><g clip-path="url(#5317f79dda)"><path fill="#ffffff" d="M 42.792969 52.636719 C 42.792969 52.726562 42.792969 52.726562 42.792969 52.90625 L 42.792969 101.101562 C 42.792969 105.574219 46.425781 109.242188 50.910156 109.242188 L 59.609375 109.242188 L 59.609375 123.015625 C 59.609375 125.964844 62.03125 128.375 65.035156 128.375 C 68.042969 128.375 70.417969 125.964844 70.417969 123.015625 L 70.417969 109.242188 L 79.65625 109.242188 L 79.65625 123.015625 C 79.65625 125.964844 82.167969 128.375 85.128906 128.375 C 88.132812 128.375 90.554688 125.964844 90.554688 123.015625 L 90.554688 109.242188 L 99.257812 109.242188 C 103.742188 109.242188 107.375 105.574219 107.375 101.101562 L 107.375 52.90625 C 107.375 52.726562 107.375 52.726562 107.375 52.636719 L 42.792969 52.636719 " fill-opacity="1" fill-rule="nonzero"/></g><g clip-path="url(#6b54aa5e98)"><path fill="#ffffff" d="M 91.09375 35.109375 C 89.34375 35.109375 88 33.769531 88 32.070312 C 88 30.464844 89.34375 29.121094 91.09375 29.121094 C 92.753906 29.121094 94.097656 30.464844 94.097656 32.070312 C 94.097656 33.769531 92.753906 35.109375 91.09375 35.109375 Z M 58.535156 35.109375 C 56.828125 35.109375 55.527344 33.769531 55.527344 32.070312 C 55.527344 30.464844 56.828125 29.121094 58.535156 29.121094 C 60.191406 29.121094 61.582031 30.464844 61.582031 32.070312 C 61.582031 33.769531 60.191406 35.109375 58.535156 35.109375 Z M 90.871094 19.824219 L 96.65625 9 L 95.445312 8.375 L 89.660156 19.195312 C 85.265625 16.960938 80.328125 15.621094 75.082031 15.621094 C 70.058594 15.621094 65.394531 16.871094 61.179688 18.925781 L 55.527344 8.375 L 54.316406 9 L 59.921875 19.550781 C 49.921875 24.738281 43.105469 35.378906 42.972656 47.453125 L 107.148438 47.453125 C 107.105469 35.558594 100.511719 25.183594 90.871094 19.824219 " fill-opacity="1" fill-rule="nonzero"/></g></svg>