<svg xmlns="http://www.w3.org/2000/svg" xmlns:xlink="http://www.w3.org/1999/xlink" width="120" zoomAndPan="magnify" viewBox="0 0 75 74.999997" height="120" preserveAspectRatio="xMidYMid meet" version="1.0"><defs><clipPath id="c59c8a93cb"><path d="M 15 10.394531 L 56.894531 10.394531 L 56.894531 60.644531 L 15 60.644531 Z M 15 10.394531 " clip-rule="nonzero"/></clipPath></defs><g clip-path="url(#c59c8a93cb)"><path fill="#ffffff" d="M 50.085938 37.023438 C 50.15625 44.609375 56.78125 47.132812 56.855469 47.164062 C 56.800781 47.339844 55.796875 50.761719 53.363281 54.292969 C 51.261719 57.34375 49.082031 60.390625 45.640625 60.449219 C 42.261719 60.511719 41.175781 58.460938 37.3125 58.460938 C 33.453125 58.460938 32.246094 60.390625 29.050781 60.511719 C 25.730469 60.636719 23.203125 57.210938 21.082031 54.167969 C 16.75 47.945312 13.4375 36.585938 17.886719 28.914062 C 20.09375 25.105469 24.039062 22.695312 28.324219 22.632812 C 31.582031 22.570312 34.660156 24.8125 36.652344 24.8125 C 38.644531 24.8125 42.378906 22.117188 46.3125 22.511719 C 47.957031 22.582031 52.574219 23.171875 55.539062 27.484375 C 55.296875 27.632812 50.027344 30.679688 50.085938 37.023438 M 43.738281 18.398438 C 45.5 16.277344 46.683594 13.328125 46.359375 10.394531 C 43.820312 10.496094 40.75 12.074219 38.929688 14.191406 C 37.296875 16.066406 35.867188 19.070312 36.253906 21.945312 C 39.082031 22.164062 41.972656 20.515625 43.738281 18.398438 " fill-opacity="1" fill-rule="nonzero"/></g></svg>