<svg xmlns="http://www.w3.org/2000/svg" xmlns:xlink="http://www.w3.org/1999/xlink" width="120" zoomAndPan="magnify" viewBox="0 0 75 74.999997" height="120" preserveAspectRatio="xMidYMid meet" version="1.0"><defs><clipPath id="9681d7140e"><path d="M 14.910156 18.042969 L 59.910156 18.042969 L 59.910156 50 L 14.910156 50 Z M 14.910156 18.042969 " clip-rule="nonzero"/></clipPath></defs><g clip-path="url(#9681d7140e)"><path fill="#ffffff" d="M 56.1875 49.445312 L 18.601562 49.445312 C 18.109375 49.445312 17.636719 49.347656 17.179688 49.160156 C 16.722656 48.96875 16.320312 48.699219 15.972656 48.347656 C 15.625 47.996094 15.355469 47.59375 15.167969 47.132812 C 14.976562 46.675781 14.882812 46.199219 14.882812 45.703125 L 14.882812 22.136719 C 14.882812 21.640625 14.976562 21.164062 15.167969 20.703125 C 15.355469 20.246094 15.625 19.839844 15.972656 19.488281 C 16.320312 19.140625 16.722656 18.867188 17.179688 18.679688 C 17.636719 18.488281 18.109375 18.394531 18.601562 18.394531 L 56.1875 18.394531 C 56.683594 18.394531 57.15625 18.488281 57.613281 18.679688 C 58.066406 18.867188 58.46875 19.140625 58.820312 19.488281 C 59.167969 19.839844 59.4375 20.246094 59.625 20.703125 C 59.8125 21.164062 59.910156 21.640625 59.910156 22.136719 L 59.910156 45.703125 C 59.910156 46.199219 59.8125 46.675781 59.625 47.132812 C 59.4375 47.59375 59.167969 47.996094 58.820312 48.347656 C 58.46875 48.699219 58.066406 48.96875 57.613281 49.160156 C 57.15625 49.347656 56.683594 49.445312 56.1875 49.445312 Z M 18.601562 20.890625 C 18.4375 20.890625 18.28125 20.921875 18.128906 20.984375 C 17.976562 21.046875 17.84375 21.136719 17.726562 21.253906 C 17.609375 21.371094 17.519531 21.507812 17.457031 21.660156 C 17.394531 21.8125 17.363281 21.972656 17.363281 22.136719 L 17.363281 45.703125 C 17.363281 45.867188 17.394531 46.027344 17.457031 46.179688 C 17.519531 46.332031 17.609375 46.46875 17.726562 46.582031 C 17.84375 46.699219 17.976562 46.789062 18.128906 46.855469 C 18.28125 46.917969 18.4375 46.949219 18.601562 46.949219 L 56.1875 46.949219 C 56.355469 46.949219 56.511719 46.917969 56.664062 46.855469 C 56.816406 46.789062 56.949219 46.699219 57.066406 46.582031 C 57.183594 46.46875 57.273438 46.332031 57.335938 46.179688 C 57.398438 46.027344 57.429688 45.867188 57.429688 45.703125 L 57.429688 22.136719 C 57.429688 21.972656 57.398438 21.8125 57.335938 21.660156 C 57.273438 21.507812 57.183594 21.371094 57.066406 21.253906 C 56.949219 21.136719 56.816406 21.046875 56.664062 20.984375 C 56.511719 20.921875 56.355469 20.890625 56.1875 20.890625 Z M 18.601562 20.890625 " fill-opacity="1" fill-rule="nonzero"/></g><path fill="#ffffff" d="M 16.125 41.609375 L 58.679688 41.609375 L 58.679688 48.195312 L 16.125 48.195312 Z M 16.125 41.609375 " fill-opacity="1" fill-rule="nonzero"/><path fill="#ffffff" d="M 43.484375 56.519531 L 31.394531 56.519531 C 31.214844 56.519531 31.046875 56.476562 30.886719 56.398438 C 30.726562 56.320312 30.589844 56.207031 30.480469 56.066406 C 30.371094 55.921875 30.296875 55.761719 30.261719 55.585938 C 30.226562 55.40625 30.234375 55.230469 30.28125 55.058594 L 32.375 47.050781 L 42.554688 47.050781 L 44.648438 55.058594 C 44.695312 55.238281 44.699219 55.417969 44.664062 55.597656 C 44.625 55.777344 44.546875 55.941406 44.433594 56.085938 C 44.316406 56.230469 44.175781 56.339844 44.007812 56.414062 C 43.84375 56.492188 43.667969 56.527344 43.484375 56.519531 Z M 43.484375 56.519531 " fill-opacity="1" fill-rule="nonzero"/></svg>