<svg xmlns="http://www.w3.org/2000/svg" xmlns:xlink="http://www.w3.org/1999/xlink" width="120" zoomAndPan="magnify" viewBox="0 0 150 149.999998" height="120" preserveAspectRatio="xMidYMid meet" version="1.0"><defs><clipPath id="1828074819"><path d="M 41.796875 9.898438 L 108.546875 9.898438 L 108.546875 140.398438 L 41.796875 140.398438 Z M 41.796875 9.898438 " clip-rule="nonzero"/></clipPath></defs><g clip-path="url(#1828074819)"><path fill="#ffffff" d="M 108.511719 133.152344 C 108.511719 137.15625 105.257812 140.398438 101.242188 140.398438 L 49.097656 140.398438 C 45.085938 140.398438 41.828125 137.15625 41.828125 133.152344 L 41.828125 17.144531 C 41.828125 13.144531 45.085938 9.898438 49.097656 9.898438 L 101.242188 9.898438 C 105.257812 9.898438 108.511719 13.144531 108.511719 17.144531 Z M 108.511719 133.152344 " fill-opacity="1" fill-rule="nonzero"/></g><path fill="#ffffff" d="M 45.257812 19.199219 L 45.257812 122.160156 L 70.789062 122.160156 L 77.269531 19.199219 Z M 45.257812 19.199219 " fill-opacity="1" fill-rule="nonzero"/><path fill="#ffffff" d="M 75.722656 19.199219 L 68.886719 122.160156 L 105.085938 122.160156 L 105.085938 19.199219 Z M 75.722656 19.199219 " fill-opacity="1" fill-rule="nonzero"/><path fill="#372e42" d="M 87.601562 14.359375 C 87.601562 14.910156 87.152344 15.355469 86.601562 15.355469 L 63.742188 15.355469 C 63.191406 15.355469 62.742188 14.90625 62.742188 14.359375 C 62.742188 13.808594 63.191406 13.359375 63.742188 13.359375 L 86.601562 13.359375 C 87.152344 13.359375 87.601562 13.804688 87.601562 14.355469 Z M 87.601562 14.359375 " fill-opacity="1" fill-rule="nonzero"/><path stroke-linecap="butt" transform="matrix(0.0515314, 0, 0, 0.05138, 26.217471, 3.21732)" fill="none" stroke-linejoin="miter" d="M 949.991374 2421.934447 L 879.191122 2492.715306 L 879.191122 2570.414595 L 927.781017 2570.414595 L 927.781017 2520.389026 L 972.201732 2520.389026 L 972.201732 2570.414595 L 1020.791627 2570.414595 L 1020.791627 2492.715306 Z M 949.991374 2421.934447 " stroke="#372e42" stroke-width="10" stroke-opacity="1" stroke-miterlimit="4"/><path stroke-linecap="butt" transform="matrix(0.0515314, 0, 0, 0.05138, 26.217471, 3.21732)" fill="none" stroke-linejoin="miter" d="M 680.207543 2520.465052 C 680.207543 2529.664283 672.703019 2537.1149 663.530824 2537.1149 L 537.849005 2537.1149 C 528.67681 2537.1149 521.24809 2529.664283 521.24809 2520.465052 C 521.24809 2511.341848 528.67681 2503.891231 537.849005 2503.891231 L 663.530824 2503.891231 C 672.703019 2503.891231 680.207543 2511.265821 680.207543 2520.465052 Z M 680.207543 2520.465052 " stroke="#372e42" stroke-width="10" stroke-opacity="1" stroke-miterlimit="4"/><path stroke-linecap="butt" transform="matrix(0.0515314, 0, 0, 0.05138, 26.217471, 3.21732)" fill="none" stroke-linejoin="miter" d="M 1378.810462 2520.465052 C 1378.810462 2529.664283 1371.381741 2537.1149 1362.133743 2537.1149 L 1236.527728 2537.1149 C 1227.279729 2537.1149 1219.851009 2529.664283 1219.851009 2520.465052 C 1219.851009 2511.341848 1227.279729 2503.891231 1236.527728 2503.891231 L 1362.133743 2503.891231 C 1371.305938 2503.891231 1378.734658 2511.265821 1378.734658 2520.465052 Z M 1378.810462 2520.465052 " stroke="#372e42" stroke-width="10" stroke-opacity="1" stroke-miterlimit="4"/></svg>