<?xml version="1.0" standalone="no"?>
<!DOCTYPE svg PUBLIC "-//W3C//DTD SVG 1.1//EN" "http://www.w3.org/Graphics/SVG/1.1/DTD/svg11.dtd">
<svg xmlns="http://www.w3.org/2000/svg" id="Layer_1" data-name="Layer 1" viewBox="0 0 365.26 74.17" width="365.260009765625" height="74.16999816894531"><defs><style>.cls-1{fill:#231f20;}.cls-2{fill:#f36d2a;}.cls-3{fill:#fff;}</style></defs><title>logo_2020</title><path class="cls-1" d="M216.8,193.16V213.6a2.13,2.13,0,0,1-.17.92q-.16.33-.84.33h-5.38a1.51,1.51,0,0,1-.93-.21,1.12,1.12,0,0,1-.27-.89V193.16h-2.4a1.78,1.78,0,0,1-.76-.12q-.24-.12-.24-.75c0-.51,0-.91,0-1.2a2.52,2.52,0,0,1,.12-.67.62.62,0,0,1,.29-.34,1.41,1.41,0,0,1,.57-.09h2.4q.06-.72.12-1.68a20.5,20.5,0,0,1,.27-2,17.39,17.39,0,0,1,.55-2.21,10.09,10.09,0,0,1,1-2.14,9.21,9.21,0,0,1,1.11-1.53A8.7,8.7,0,0,1,213.8,179a7.92,7.92,0,0,1,2-1,7.19,7.19,0,0,1,2.4-.39,3.84,3.84,0,0,1,2.74.87,2.92,2.92,0,0,1,.91,2.21,2.51,2.51,0,0,1-.79,2,2.6,2.6,0,0,1-1.71.68,4.31,4.31,0,0,1-1.13-.17,4.24,4.24,0,0,0-1.12-.17,1.93,1.93,0,0,0-1.47.64,2.53,2.53,0,0,0-.6,1.79,8.5,8.5,0,0,0,1.73,4.53h3.36a1.21,1.21,0,0,1,.67.14c.13.1.19.32.19.68v1.87c-.06.25-.16.4-.28.43a3.39,3.39,0,0,1-.68,0Z" transform="translate(-107.29 -155.84)"/><path class="cls-1" d="M224.86,179.14c0-.45.1-.73.29-.84a1.78,1.78,0,0,1,.87-.17h5.41a1.67,1.67,0,0,1,.85.17c.17.11.26.39.26.84V213.7a1.36,1.36,0,0,1-.22.91,1.2,1.2,0,0,1-.89.24h-5.36a1.94,1.94,0,0,1-.92-.16c-.19-.12-.29-.41-.29-.89Z" transform="translate(-107.29 -155.84)"/><path class="cls-1" d="M256.88,209.72a11.66,11.66,0,0,1-.12,1.65,3.18,3.18,0,0,1-.65,1.52,3.49,3.49,0,0,1-1,.88,7.33,7.33,0,0,1-1.75.84,16.12,16.12,0,0,1-2.6.65,19.63,19.63,0,0,1-3.43.26c-.35,0-.84,0-1.46,0a14.27,14.27,0,0,1-2.09-.24,16.7,16.7,0,0,1-2.35-.62,6.93,6.93,0,0,1-2.16-1.2,6,6,0,0,1-2.21-4.92,6.53,6.53,0,0,1,1.1-3.89,8.81,8.81,0,0,1,2.88-2.52,18,18,0,0,1,4-1.59c1.5-.39,3-.77,4.6-1.12v-2.5c0-.38,0-.78,0-1.2a3.87,3.87,0,0,0-.27-1.15,2,2,0,0,0-.67-.86,2.14,2.14,0,0,0-1.32-.34,2.32,2.32,0,0,0-1.87.82,3.47,3.47,0,0,0-.48.72,4.37,4.37,0,0,0-.29.67,8.24,8.24,0,0,1-1,1.87,2.61,2.61,0,0,1-2.25.86,3,3,0,0,1-3.27-3.07,4.15,4.15,0,0,1,.6-2.06,5.55,5.55,0,0,1,1.9-1.9,11.92,11.92,0,0,1,3.26-1.39,17.5,17.5,0,0,1,4.71-.55,20.34,20.34,0,0,1,2.8.21,7.32,7.32,0,0,1,2.72.94,5.24,5.24,0,0,1,1.48,1.39,6,6,0,0,1,.8,1.58,6.76,6.76,0,0,1,.31,1.59c0,.51.05,1,.05,1.39Zm-7.16-7c-.67.19-1.32.41-1.94.65a7.13,7.13,0,0,0-1.68.91,4,4,0,0,0-1.2,1.42,4.61,4.61,0,0,0-.46,2.16,3.49,3.49,0,0,0,1,2.8,3.09,3.09,0,0,0,2,.84,2.21,2.21,0,0,0,1.27-.31,1.9,1.9,0,0,0,.67-.77,2.86,2.86,0,0,0,.27-1c0-.33,0-.64,0-.93Z" transform="translate(-107.29 -155.84)"/><path class="cls-1" d="M270.22,193.16v13.77c0,.39,0,.83,0,1.32a3.87,3.87,0,0,0,.36,1.42,3,3,0,0,0,1,1.15,3.28,3.28,0,0,0,1.85.53l.64,0a1.69,1.69,0,0,1,.65.17,1.58,1.58,0,0,1,.51.43,1.49,1.49,0,0,1,.21.87,1.55,1.55,0,0,1-.5,1.08,4.52,4.52,0,0,1-1.3.86,8.1,8.1,0,0,1-1.8.55,10.81,10.81,0,0,1-2.06.19c-.29,0-.64,0-1.06,0a7.17,7.17,0,0,1-1.37-.27,8.62,8.62,0,0,1-1.53-.62,5.36,5.36,0,0,1-1.47-1.13A5.07,5.07,0,0,1,263,210.8a16.15,16.15,0,0,1-.22-2.62v-15h-1.56a6.73,6.73,0,0,1-.69,0l-.34,0c-.26,0-.41-.12-.46-.26a2.13,2.13,0,0,1-.07-.56V191a3.29,3.29,0,0,1,.05-.64.35.35,0,0,1,.17-.27l.31-.09a5,5,0,0,1,1,0h1.58v-2.5a2.28,2.28,0,0,1,.15-1,2.09,2.09,0,0,1,.76-.67l4.9-2.49.38-.2a1,1,0,0,1,.44-.09.66.66,0,0,1,.74.52,4.22,4.22,0,0,1,.12.87V190h3.22a2.62,2.62,0,0,1,.72.07c.16.05.27.2.33.46v1.77c0,.39-.09.63-.26.72a1.65,1.65,0,0,1-.79.15Z" transform="translate(-107.29 -155.84)"/><path class="cls-1" d="M278,195a10.41,10.41,0,0,1,.16-2.18,2.58,2.58,0,0,1,1.13-1.37,8,8,0,0,1,2.09-1,19.49,19.49,0,0,1,2.5-.64q1.28-.24,2.43-.36c.77-.08,1.39-.12,1.88-.12a14.21,14.21,0,0,1,3.05.28,11.67,11.67,0,0,1,2.16.7,8.17,8.17,0,0,1,1.47.84c.38.29.7.55,1,.77a10.35,10.35,0,0,1,1.44-1.08,8.8,8.8,0,0,1,2.6-1,14.11,14.11,0,0,1,2.23-.41,22.56,22.56,0,0,1,2.38-.12,9.46,9.46,0,0,1,4.69,1,6.81,6.81,0,0,1,2.45,2.25,6.64,6.64,0,0,1,1,2.67,19.47,19.47,0,0,1,.17,2.23V213.7a1.76,1.76,0,0,1-.17.86c-.11.2-.38.29-.8.29h-5.6c-.45,0-.75-.08-.89-.26a1.3,1.3,0,0,1-.22-.84V197.81c0-.41,0-.85-.05-1.32a3.94,3.94,0,0,0-.31-1.29,2.26,2.26,0,0,0-.83-1,2.94,2.94,0,0,0-1.62-.38,3.32,3.32,0,0,0-1.43.26,2.67,2.67,0,0,0-.81.6,2.14,2.14,0,0,0-.71,1.27,13.12,13.12,0,0,0-.1,1.85v15.94a1.25,1.25,0,0,1-.22.86,1.2,1.2,0,0,1-.89.24h-5.26a1.9,1.9,0,0,1-1-.19c-.21-.13-.32-.45-.32-1v-16c0-.48,0-.86,0-1.13a5,5,0,0,0-.12-.79,2.28,2.28,0,0,0-1.17-1.68,3.57,3.57,0,0,0-1.55-.43,3,3,0,0,0-2.19.86,2.33,2.33,0,0,0-.71,1.34,13.33,13.33,0,0,0-.09,1.63v16.13a1.56,1.56,0,0,1-.22.94c-.15.18-.48.26-1,.26h-5.31a1.49,1.49,0,0,1-.9-.21,1.13,1.13,0,0,1-.26-.89Z" transform="translate(-107.29 -155.84)"/><path class="cls-1" d="M336.6,209.72a11.66,11.66,0,0,1-.12,1.65,3.16,3.16,0,0,1-.64,1.52,3.82,3.82,0,0,1-1,.88,7.42,7.42,0,0,1-1.76.84,16,16,0,0,1-2.59.65,19.71,19.71,0,0,1-3.43.26c-.35,0-.84,0-1.46,0a14.27,14.27,0,0,1-2.09-.24,16.7,16.7,0,0,1-2.35-.62,6.93,6.93,0,0,1-2.16-1.2,6,6,0,0,1-2.21-4.92,6.53,6.53,0,0,1,1.1-3.89,8.81,8.81,0,0,1,2.88-2.52,18.11,18.11,0,0,1,4-1.59c1.51-.39,3-.77,4.61-1.12v-2.5c0-.38,0-.78-.05-1.2a3.87,3.87,0,0,0-.26-1.15,2,2,0,0,0-.67-.86,2.18,2.18,0,0,0-1.32-.34,2.32,2.32,0,0,0-1.87.82,2.83,2.83,0,0,0-.48.72,4.37,4.37,0,0,0-.29.67,8.24,8.24,0,0,1-1,1.87,2.63,2.63,0,0,1-2.26.86,3,3,0,0,1-3.26-3.07,4.15,4.15,0,0,1,.6-2.06,5.55,5.55,0,0,1,1.9-1.9,11.92,11.92,0,0,1,3.26-1.39,17.48,17.48,0,0,1,4.7-.55,20.48,20.48,0,0,1,2.81.21,7.27,7.27,0,0,1,2.71.94,5.28,5.28,0,0,1,1.49,1.39,6,6,0,0,1,.79,1.58,6.8,6.8,0,0,1,.32,1.59c0,.51,0,1,0,1.39Zm-7.15-7c-.67.19-1.32.41-1.94.65a6.75,6.75,0,0,0-1.68.91,4,4,0,0,0-1.2,1.42,4.49,4.49,0,0,0-.46,2.16,3.49,3.49,0,0,0,1,2.8,3.09,3.09,0,0,0,2,.84,2.23,2.23,0,0,0,1.27-.31,1.9,1.9,0,0,0,.67-.77,2.85,2.85,0,0,0,.26-1,7.65,7.65,0,0,0,.05-.93Z" transform="translate(-107.29 -155.84)"/><path class="cls-1" d="M350,193.16v13.77c0,.39,0,.83.05,1.32a3.87,3.87,0,0,0,.36,1.42,2.84,2.84,0,0,0,1,1.15,3.24,3.24,0,0,0,1.84.53l.65,0a1.69,1.69,0,0,1,.65.17,1.46,1.46,0,0,1,.5.43,1.41,1.41,0,0,1,.22.87,1.55,1.55,0,0,1-.5,1.08,4.52,4.52,0,0,1-1.3.86,8.1,8.1,0,0,1-1.8.55,10.81,10.81,0,0,1-2.06.19c-.29,0-.64,0-1.06,0a7,7,0,0,1-1.37-.27,8.05,8.05,0,0,1-1.53-.62,5.36,5.36,0,0,1-1.47-1.13,5.07,5.07,0,0,1-1.41-2.66,16.15,16.15,0,0,1-.22-2.62v-15H340.9c-.27,0-.5,0-.7,0l-.33,0c-.26,0-.41-.12-.46-.26a1.78,1.78,0,0,1-.07-.56V191a3.29,3.29,0,0,1,.05-.64.35.35,0,0,1,.17-.27l.31-.09a5,5,0,0,1,1,0h1.58v-2.5a2.48,2.48,0,0,1,.14-1,2.24,2.24,0,0,1,.77-.67l4.9-2.49.38-.2a1,1,0,0,1,.43-.09.67.67,0,0,1,.75.52,4.22,4.22,0,0,1,.12.87V190h3.21a2.62,2.62,0,0,1,.72.07.56.56,0,0,1,.34.46v1.77c0,.39-.09.63-.26.72a1.67,1.67,0,0,1-.8.15Z" transform="translate(-107.29 -155.84)"/><path class="cls-1" d="M363.15,202.9q.09.53.24,1.23a4.32,4.32,0,0,0,.53,1.36,6.24,6.24,0,0,0,2.2,2.43,5.8,5.8,0,0,0,3.17.89,6,6,0,0,0,2.93-.7,8.88,8.88,0,0,0,2-1.42,11.17,11.17,0,0,1,1.05-1.08,1.46,1.46,0,0,1,1.9.2,1.86,1.86,0,0,1,.45,1.36,6,6,0,0,1-.16,1.16,9.28,9.28,0,0,1-.58,1.67,11.13,11.13,0,0,1-1.1,1.9,8.49,8.49,0,0,1-1.75,1.8,8.6,8.6,0,0,1-2.52,1.32,10.34,10.34,0,0,1-3.39.5,11.34,11.34,0,0,1-5.35-1.15,10,10,0,0,1-3.53-3,11.94,11.94,0,0,1-1.92-4.27,21,21,0,0,1-.58-4.85,16,16,0,0,1,1-6,11.39,11.39,0,0,1,2.64-4A10.17,10.17,0,0,1,364,190a12,12,0,0,1,4-.69,8.76,8.76,0,0,1,4.72,1.15,9.93,9.93,0,0,1,2.93,2.69,9.48,9.48,0,0,1,1.49,3.14,11.14,11.14,0,0,1,.41,2.48,3.35,3.35,0,0,1-.19,1.22,1.72,1.72,0,0,1-.51.7,1.86,1.86,0,0,1-.64.33c-.23.07-.44.11-.63.15Zm7-4.8a7,7,0,0,0-.6-2.47,3.81,3.81,0,0,0-1-1.3,2.44,2.44,0,0,0-1.08-.48c-.35,0-.59-.07-.72-.07a3.44,3.44,0,0,0-1.82.46,3.56,3.56,0,0,0-1.25,1.22,6,6,0,0,0-.72,1.75,8.42,8.42,0,0,0-.24,2Z" transform="translate(-107.29 -155.84)"/><path class="cls-1" d="M389.64,211a4.38,4.38,0,0,1-1.15,2.88,3.7,3.7,0,0,1-2.93,1.25,3.88,3.88,0,0,1-2.93-1.22,4.26,4.26,0,0,1-1.15-3,4.13,4.13,0,0,1,.39-1.85,4,4,0,0,1,1-1.32,4.07,4.07,0,0,1,1.32-.79,3.82,3.82,0,0,1,4.22,1A4.12,4.12,0,0,1,389.64,211Z" transform="translate(-107.29 -155.84)"/><path class="cls-1" d="M405.93,215.44a11,11,0,0,1-11.07-11.24c0-6.36,4.66-11.45,11.13-11.45a11.46,11.46,0,0,1,7.52,2.76v2.81a9.8,9.8,0,0,0-7.52-3.55,9.37,9.37,0,0,0-.06,18.71c3.29,0,5.78-1.54,7.9-3.93v2.87A11.85,11.85,0,0,1,405.93,215.44Z" transform="translate(-107.29 -155.84)"/><path class="cls-1" d="M428.94,215.44a11.35,11.35,0,1,1,11.28-11.34A11.29,11.29,0,0,1,428.94,215.44Zm-.11-20.67a9.33,9.33,0,1,0,9.22,9.33A9.09,9.09,0,0,0,428.83,194.77Z" transform="translate(-107.29 -155.84)"/><path class="cls-1" d="M470.43,214.85V200.44c0-1.48,0-2.86-.95-4.08a4.72,4.72,0,0,0-3.71-1.59c-4.24,0-5.51,3.39-5.51,7v13h-2.12V201c0-3.18-1.06-6.2-4.77-6.2-4.29,0-5.51,4-5.51,7.58v12.5h-2.12V193.23h2.12v2.7a6.13,6.13,0,0,1,5.62-3.18,6.32,6.32,0,0,1,6,3.93,6.48,6.48,0,0,1,6.3-3.93,6.88,6.88,0,0,1,5.36,2.39c1.32,1.64,1.37,3.55,1.37,5.56v14.15Z" transform="translate(-107.29 -155.84)"/><path class="cls-2" d="M176.1,222.85a3,3,0,0,1-1,.84,35.77,35.77,0,0,1-15.38,5.93,37.11,37.11,0,0,1-42-30.68c-.08-.5-.14-1-.21-1.51.14-.14.31-.07.46-.05.46.08.9.17,1.36.24s.59.18.6.71a12.34,12.34,0,0,0,2.61,7.31,5.63,5.63,0,0,0,2.9,2.17,4.21,4.21,0,0,0,3.1-.19,1,1,0,0,1,1.1,0,9.26,9.26,0,0,0,10.07-.11,17.86,17.86,0,0,0,4.46-4.3c.82-1,1.62-2,2.37-3.13a4.47,4.47,0,0,1,2.9-1.84c1.25-.26,2.53-.32,3.79-.51a5.77,5.77,0,0,0,3.06-1.2,4.1,4.1,0,0,0,.86-5.45,7.94,7.94,0,0,0-5-3.58,7.78,7.78,0,0,0-7.09,1.37c-.21.16-.41.32-.63.46s-.49.17-.6-.22a4.17,4.17,0,0,1,0-2.27c.72-2.6,1.42-5.21,2-7.85a26.06,26.06,0,0,0,.6-6.53,6,6,0,0,0-1.11-3.49,3.52,3.52,0,0,0-2.71-1.48,6,6,0,0,0-6.55,4.28,16,16,0,0,0-.85,3.62c0,.24,0,.64-.28.65s-.28-.39-.34-.63a18.45,18.45,0,0,0-2.12-5.46,12.4,12.4,0,0,0-3.39-3.64c-.12-.09-.3-.14-.3-.35a33.27,33.27,0,0,1,5.45-4.3,35.24,35.24,0,0,1,14.25-5.42c11.93-1.72,22.42,1.46,31.27,9.65a36.07,36.07,0,0,1,11.06,20.23c.05.28.08.58.12.87a1,1,0,0,1-.6.16,7,7,0,0,0-3.54,1.46c-.2.14-.42.45-.66.28s0-.49,0-.73a12.8,12.8,0,0,0,.35-4.57A4,4,0,0,0,184,180.3a5.74,5.74,0,0,0-6,.52,12.85,12.85,0,0,0-4,5.31,26.79,26.79,0,0,0-1.17,3.69c-.05.2-.05.52-.28.51s-.24-.34-.27-.57a15.89,15.89,0,0,0-1.05-4.27,6,6,0,0,0-6.72-3.73,3.65,3.65,0,0,0-3,2.5,9.91,9.91,0,0,0-.52,4.19,44.8,44.8,0,0,0,1.5,8.54c.35,1.41.72,2.82,1.12,4.22a3.61,3.61,0,0,1,0,1.93c-.14.59-.32.66-.79.3a13.18,13.18,0,0,0-1.68-1.11,7.46,7.46,0,0,0-5.55-.71,8.16,8.16,0,0,0-5.26,3.57,4.19,4.19,0,0,0,2.23,6.35,12.55,12.55,0,0,0,3,.56,19.07,19.07,0,0,1,2.9.48,4.06,4.06,0,0,1,2.31,1.56c1.06,1.43,2.12,2.86,3.26,4.23a15.73,15.73,0,0,0,4.18,3.66,9.55,9.55,0,0,0,7.27.84c.19,0,.39-.2.59,0" transform="translate(-107.29 -155.84)"/><path d="M176.1,222.85a12.41,12.41,0,0,1-3.59.5,9.22,9.22,0,0,1-5.38-1.89,24.38,24.38,0,0,1-5-5.34c-.52-.69-1-1.39-1.55-2.07a4.39,4.39,0,0,0-2.86-1.53c-1.53-.29-3.1-.3-4.62-.68a4.47,4.47,0,0,1-3.57-4.46,5.65,5.65,0,0,1,2.22-4,9.11,9.11,0,0,1,5.73-2.15,8.39,8.39,0,0,1,5.44,2.07l.22.19c.2.17.26.13.34-.13a4.23,4.23,0,0,0-.06-2.44c-.85-3-1.65-6.07-2.2-9.17a22,22,0,0,1-.4-4.36,7.7,7.7,0,0,1,.94-3.92,4.13,4.13,0,0,1,4.28-1.93,6.41,6.41,0,0,1,3,1,7.37,7.37,0,0,1,2.72,4.12,13.84,13.84,0,0,1,.61,3.19,1.07,1.07,0,0,0,.16.45,37.81,37.81,0,0,1,1.11-3.75,13.31,13.31,0,0,1,4.17-5.8,5.67,5.67,0,0,1,5.75-.75c2.1.73,3,2,3.14,4.48a14.79,14.79,0,0,1-.54,4.19c0,.08,0,.16-.07.34a7.49,7.49,0,0,1,4.83-2,6.39,6.39,0,0,1,2.76,1,3.93,3.93,0,0,1,1.82,3.22,6.46,6.46,0,0,1-.73,2.94,22,22,0,0,1-2.08,3.45l-.17.28a17.26,17.26,0,0,1,1.79-.61,4.51,4.51,0,0,1,5.15,2.41,3.75,3.75,0,0,1,.26,3.82,9.32,9.32,0,0,1-.77,1.34,17.71,17.71,0,0,1-8.77,6.59,9.82,9.82,0,0,1-2.28.46c-.25,0-.26.06-.25.33a11.31,11.31,0,0,1-.76,4.23,11,11,0,0,1-2.85,4.42,4.55,4.55,0,0,1-5.45.85.41.41,0,0,0-.51,0,8.74,8.74,0,0,1-2,1" transform="translate(-107.29 -155.84)"/><path d="M128.78,166a14,14,0,0,1,5.71,8.52c.14.53.28,1.05.45,1.58a22.79,22.79,0,0,1,.94-4.18,6.32,6.32,0,0,1,3.47-4,6.58,6.58,0,0,1,3.58-.47,4.09,4.09,0,0,1,3.33,3.19,12.7,12.7,0,0,1,.23,4.8c-.38,4.09-1.6,8-2.6,12a3.86,3.86,0,0,0,.1,1.88c.07.29.18.18.32.07a11.14,11.14,0,0,1,2.6-1.63,8.13,8.13,0,0,1,6.88.31,7.33,7.33,0,0,1,3.68,3.5,4.29,4.29,0,0,1-2.59,6,14.91,14.91,0,0,1-3.24.59,13.59,13.59,0,0,0-3.1.59,3.61,3.61,0,0,0-1.71,1.25c-1.22,1.61-2.38,3.27-3.73,4.78a12.46,12.46,0,0,1-5.79,4.09,9.32,9.32,0,0,1-7.9-1.13.54.54,0,0,0-.62-.05,4.61,4.61,0,0,1-5.48-.95,11.84,11.84,0,0,1-3.44-7.2,5.12,5.12,0,0,1-.08-1.17c0-.35,0-.52-.43-.57-.63-.06-1.24-.2-1.87-.31a17.92,17.92,0,0,1-4-2,16.86,16.86,0,0,1-5.35-5.41c-1.26-2.16-1-3.29.34-5.2a4.23,4.23,0,0,1,3.33-1.85,5.67,5.67,0,0,1,2.55.53l.43.17c0-.26-.12-.39-.22-.53a16.56,16.56,0,0,1-2.35-4.46,4.08,4.08,0,0,1,1.35-4.67,5.34,5.34,0,0,1,6.38-.21c.46.3.91.62,1.43,1a21.33,21.33,0,0,1-.52-2.7,7.89,7.89,0,0,1,.38-4,4.63,4.63,0,0,1,3.36-2.45,6.09,6.09,0,0,1,4.22.37" transform="translate(-107.29 -155.84)"/><path class="cls-3" d="M164.88,208.35c.37-2,.94-4,1.21-6a3.9,3.9,0,0,0-.23-1.54c-.79-2.95-1.63-5.9-2.16-8.92a18.75,18.75,0,0,1-.35-5.79,4.35,4.35,0,0,1,.25-.94,1.78,1.78,0,0,1,1.92-1.21,3.89,3.89,0,0,1,3.72,2.68,15.69,15.69,0,0,1,.88,4.49,45.1,45.1,0,0,1-.2,7.44c0,.34.07.49.4.56a9.8,9.8,0,0,1,1.4.42c.36.14.51,0,.67-.28a26.45,26.45,0,0,0,2-5.93A39.26,39.26,0,0,1,176,187.1a11.74,11.74,0,0,1,3.16-4.36,3.87,3.87,0,0,1,4.55.06,2.22,2.22,0,0,1,.59,1.81,15.33,15.33,0,0,1-.81,4.5,34,34,0,0,1-4.63,9.44c-.22.33-.64.69-.55,1s.58.47.9.7.69.63,1,.58.49-.56.71-.89c1.2-1.74,2.14-3.65,3.43-5.35a21.73,21.73,0,0,1,3.3-3.74,5.26,5.26,0,0,1,2.67-1.34,2.79,2.79,0,0,1,2.37.78A1.61,1.61,0,0,1,193,192a9.75,9.75,0,0,1-1.46,3.07c-1.35,2.11-3,4-4.41,6.06A33.69,33.69,0,0,0,185.3,204c-.15.26-.13.4.14.56a15.58,15.58,0,0,1,1.33.91c.25.19.38.17.59-.06a28.93,28.93,0,0,1,4.54-4.24,7.78,7.78,0,0,1,3-1.5,2,2,0,0,1,2.21.86,1.93,1.93,0,0,1,.13,2.61c-.24.31-.43.66-.68,1a16,16,0,0,1-6.45,4.89,7.58,7.58,0,0,1-4.84.35c-.26-.06-.54-.08-.86-.13.15.42.26.81.41,1.18a6.41,6.41,0,0,1,.2,4.08,9.48,9.48,0,0,1-2.33,4.45c-1.35,1.36-2.43,1.4-3.89.16-.64-.54-.68-.58-1.22.06-1.62,1.92-5.62,2.45-8.21.92a16,16,0,0,1-4.32-4.08c-.76-1-1.52-1.92-2.21-2.93a6.7,6.7,0,0,0-4.7-2.87c-1.37-.23-2.75-.39-4.12-.59a3.1,3.1,0,0,1-1.06-.36,1.84,1.84,0,0,1-.82-2.47,5.52,5.52,0,0,1,3.69-2.83,5.66,5.66,0,0,1,5.26,1,32.34,32.34,0,0,1,3.17,2.91c.17.17.32.37.48.56l.14-.07" transform="translate(-107.29 -155.84)"/><path class="cls-3" d="M142.59,194.22c1.1-1,2.12-2,3.2-3A5.83,5.83,0,0,1,150,189.5a6.25,6.25,0,0,1,4.88,2.41c1.15,1.52.61,3-1.23,3.45a27.66,27.66,0,0,1-3.39.48c-2.35.29-4.42,1.07-5.79,3.18-.54.83-1.18,1.61-1.79,2.39a19.24,19.24,0,0,1-3.68,3.86,7.42,7.42,0,0,1-7.18,1,5.52,5.52,0,0,1-2.28-1.65c-.22-.25-.39-.28-.61,0a5.56,5.56,0,0,1-.44.39A2.34,2.34,0,0,1,125,205a9.19,9.19,0,0,1-2.55-4.59,6.85,6.85,0,0,1,.32-4.55c.1-.23.17-.48.28-.78l-1.92.31a7.62,7.62,0,0,1-4.54-.87,15.75,15.75,0,0,1-6.15-5.18c-.08-.12-.15-.25-.24-.37-.94-1.36-.29-2.22.72-3.15a1.83,1.83,0,0,1,1.77-.26,9.81,9.81,0,0,1,3.71,2.12,31.47,31.47,0,0,1,3.66,3.55c.22.26.38.31.67.08a11.29,11.29,0,0,1,1.29-.88c.3-.17.28-.33.13-.58a36.71,36.71,0,0,0-2.6-3.9,62.93,62.93,0,0,1-4.16-5.87,6.06,6.06,0,0,1-1-2.73,1.54,1.54,0,0,1,.83-1.49,3.1,3.1,0,0,1,3.34,0,11.56,11.56,0,0,1,3.3,3,36,36,0,0,1,3.61,5.28c.48.84,1,1.63,1.58,2.42.16.21.27.26.5.09a15.25,15.25,0,0,1,1.4-1c.27-.17.23-.29.09-.52-1-1.65-2.16-3.19-3-4.93a30.51,30.51,0,0,1-2.75-8,6.79,6.79,0,0,1-.06-2.58,1.6,1.6,0,0,1,.85-1.19,3.85,3.85,0,0,1,4.45.39,12.82,12.82,0,0,1,3.62,6.26c.64,2.35,1,4.77,1.75,7.1a22.75,22.75,0,0,0,1.2,3c.13.26.25.36.56.24a13.8,13.8,0,0,1,1.55-.46c.3-.07.35-.2.33-.51a48.13,48.13,0,0,1-.22-7,16.06,16.06,0,0,1,.92-5,3.87,3.87,0,0,1,3.57-2.66c1.32-.1,2.11.65,2.31,2.22a18.48,18.48,0,0,1-.35,5.65c-.54,3.13-1.42,6.18-2.24,9.25a5.56,5.56,0,0,0,0,2.66c.32,1.54.67,3.08,1,4.67" transform="translate(-107.29 -155.84)"/></svg>