<svg xmlns="http://www.w3.org/2000/svg" id="Layer_2" data-name="Layer 2" viewBox="0 0 512.4 43.19"><defs><style>      .cls-1 {        fill: #252425;      }    </style></defs><g id="Layer_1-2" data-name="Layer 1"><g><path class="cls-1" d="m18.26,24.99c2.35,2.17,2.96,4.8,2.96,7.18,0,6.52-4.26,11.01-11.03,11.01-2.89,0-7.66-.82-9.97-3.22-.44-1.82-.22-5.57.68-8.21h.52c-.59,6.07,3.25,9.95,8.49,9.66,4.3-.24,7.89-3.19,7.89-7.89,0-2.3-.84-4.12-2.31-5.49l-11.28-10.48c-2.38-2.17-3.19-5.02-3.19-7.3C1.02,5.29,4.65.31,11.37.31c1.55,0,3.49.26,5.05.6h2.33v7.23h-.57c.01-3.77-2.96-6.06-6.63-6.06-4.34,0-7.24,3.18-7.24,6.77,0,1.54.52,3.71,2.37,5.43l11.57,10.71Z"></path><path class="cls-1" d="m45.41,42.36h-12.89v-.59h.75c2.06,0,3.73-1.65,3.77-3.7V5.39c-.05-2.04-1.72-3.68-3.77-3.68h-.75v-.59s12.88,0,12.88,0v.59h-.75c-2.05,0-3.71,1.63-3.77,3.67v32.69c.04,2.05,1.71,3.7,3.77,3.7h.75v.59Z"></path><path class="cls-1" d="m102.04,38.08c.3,2.33,2.19,3.69,4.29,3.69h.94v.59h-12.8v-.56h.92c1.27,0,2.41-1.25,2.3-2.51l-2.67-29.64-12.38,27.52s-1.64,3.58-2.02,6.01h-.55l-15.06-32.68-2.58,28.78c-.11,1.27,1.03,2.51,2.3,2.52h.92v.56h-11.41v-.59h.94c2.11,0,3.99-1.36,4.29-3.69L63.88.31h.55l16.44,35.54L96.93.32h.54l4.57,37.76Z"></path><path class="cls-1" d="m131.46,1.13c7.53,0,12.15,4.32,12.15,11.37,0,8.98-9.74,13.76-17.13,9.86v-.56s9.68,2.09,12.34-6.35c.26-.83.41-2.25.38-3.55-.15-5.41-2.93-9.02-7.94-9.02h-6.79v35.17c.04,2.05,1.71,3.7,3.77,3.7h.75v.59s-12.88,0-12.88,0v-.59h.75c2.06,0,3.73-1.65,3.77-3.7V5.11c-.19-1.91-1.8-3.39-3.75-3.39h-.75v-.59s15.34,0,15.34,0Z"></path><path class="cls-1" d="m182.05,32.85l-3.43,9.51h-24.42v-.59h.75c2.06,0,3.73-1.65,3.77-3.7V5.43c-.04-2.05-1.71-3.7-3.77-3.7h-.75v-.59s12.88,0,12.88,0v.59h-.75c-2.06,0-3.73,1.65-3.77,3.7v35.13h8.45c6.24,0,8.64-3.23,10.46-7.71h.59Z"></path><path class="cls-1" d="m221.26,1.13v.59h-.82c-2.45,0-4.65,1.62-5.91,3.42l-11.65,18.83v14.1c.04,2.05,1.71,3.7,3.77,3.7h.75v.59s-12.87,0-12.87,0v-.59h.75c2.05,0,3.72-1.63,3.77-3.67v-14.2l-11.21-18.75c-1.14-1.81-3.46-3.44-5.92-3.44h-.8v-.59h14.48v.59h-.74c-1.72,0-2.93,1.98-2.06,3.66l8.83,16.48,9.39-16.49.03-.06c.92-1.66-.51-3.59-2.1-3.59h-.74v-.59h13.06Z"></path><path class="cls-1" d="m272.36,1.07c2.54-.01,5.99-.61,7.09-1.07v7.4h-.59v-1.06c0-1.89-1.49-3.43-3.36-3.51h-11.16v35.28c.06,2.03,1.73,3.66,3.77,3.66h.74v.59s-12.88,0-12.88,0v-.59h.75c2.03,0,3.68-1.6,3.77-3.61V2.84h-11.17c-1.87.08-3.36,1.62-3.36,3.51v1.05h-.59s0-7.4,0-7.4c1.1.46,4.55,1.06,7.09,1.07h19.89Z"></path><path class="cls-1" d="m316.47,42.36v-.59h.76c2.04,0,3.71-1.63,3.77-3.66v-15.25h-24.1v15.21c.04,2.05,1.71,3.7,3.77,3.7h.75v.59s-12.88,0-12.88,0v-.59h.75c2.06,0,3.73-1.65,3.77-3.7V5.39c-.05-2.04-1.72-3.68-3.77-3.68h-.75v-.59s12.87,0,12.87,0v.59h-.75c-2.05,0-3.71,1.63-3.77,3.67v15.71h24.1V5.34c-.08-2.02-1.73-3.63-3.77-3.63h-.75v-.59s12.88,0,12.88,0v.59h-.76c-2.06,0-3.73,1.65-3.77,3.7v32.65c.04,2.05,1.71,3.7,3.77,3.7h.74v.59s-12.88,0-12.88,0Z"></path><path class="cls-1" d="m374.22,38.06c1.19,2.62,3.37,3.71,5.17,3.71h.49v.59h-13.26v-.58h.52c1.52,0,3.1-1.34,2.24-3.7l-3.77-10.03h-15.87l-3.95,10.07c-.83,2.33.74,3.66,2.25,3.66h.52v.58h-11.86v-.59h.53c1.79,0,3.97-1.09,5.16-3.7l13.36-31.69s2.18-4.77,2.18-6.07h.53l15.75,37.76Zm-9.27-11.78l-7.1-18.9-7.41,18.9h14.51Z"></path><path class="cls-1" d="m407.69,1.07c2.55-.01,5.99-.61,7.09-1.07v7.4h-.59v-1.06c0-1.89-1.49-3.43-3.36-3.51h-11.16v35.28c.06,2.03,1.73,3.66,3.77,3.66h.75v.59s-12.88,0-12.88,0v-.59h.75c2.03,0,3.68-1.6,3.77-3.61V2.84h-11.17c-1.87.08-3.36,1.62-3.36,3.51v1.05h-.59s0-7.4,0-7.4c1.1.46,4.55,1.06,7.09,1.07h19.89Z"></path><path class="cls-1" d="m460.71,25.17l-.72,9.24c-3.11,5.07-8.37,8.77-16.55,8.77-12.32-.06-21.03-8.48-21.03-21.5S430.83.31,443.78.31c5.77,0,10.48,1.71,13.93,3.98l1.19,8.32h-.49c-1.79-6.88-7.56-10.53-14.64-10.53-10.36,0-16.95,7.83-16.95,19.55s6.71,19.55,16.62,19.79c8.36-.03,15.44-4.19,16.78-16.25h.49Z"></path><path class="cls-1" d="m499.52,42.36v-.59h.76c2.04,0,3.71-1.63,3.77-3.66v-15.25h-24.1v15.21c.04,2.05,1.71,3.7,3.77,3.7h.75v.59s-12.88,0-12.88,0v-.59h.75c2.06,0,3.73-1.65,3.77-3.7V5.39c-.05-2.04-1.72-3.68-3.77-3.68h-.75v-.59s12.87,0,12.87,0v.59h-.75c-2.05,0-3.71,1.63-3.77,3.67v15.71h24.1V5.34c-.08-2.02-1.73-3.63-3.77-3.63h-.75v-.59s12.88,0,12.88,0v.59h-.76c-2.06,0-3.73,1.65-3.77,3.7v32.65c.04,2.05,1.71,3.7,3.77,3.7h.74v.59s-12.88,0-12.88,0Z"></path></g></g></svg>