<?xml version="1.0" standalone="no"?>
<!DOCTYPE svg PUBLIC "-//W3C//DTD SVG 1.1//EN" "http://www.w3.org/Graphics/SVG/1.1/DTD/svg11.dtd">
<svg xmlns="http://www.w3.org/2000/svg" xmlns:xlink="http://www.w3.org/1999/xlink" xmlns:serif="http://www.serif.com/" width="3512" height="555" viewBox="0 0 3512 555" version="1.1" xml:space="preserve" style="fill-rule:evenodd;clip-rule:evenodd;stroke-linejoin:round;stroke-miterlimit:2;"><path d="M48.465,88.468c-15.386,0 -27.438,-3.846 -36.156,-11.539c-8.206,-7.693 -12.309,-18.463 -12.309,-32.31c0,-29.233 16.155,-43.85 48.465,-43.85c32.31,0 48.465,14.617 48.465,43.85c0,29.233 -16.155,43.849 -48.465,43.849Zm0,463.881c-25.643,-0 -38.464,-14.104 -38.464,-42.311l-0,-300.022c-0,-27.695 12.821,-41.542 38.464,-41.542c26.156,0 39.234,13.847 39.234,41.542l-0,300.022c-0,28.207 -13.078,42.311 -39.234,42.311Zm199.372,0.769c-28.207,0 -42.311,-14.104 -42.311,-42.311l-0,-462.342c-0,-28.72 14.36,-43.08 43.08,-43.08l273.866,-0c22.054,-0 33.08,10.514 33.08,31.541c-0,22.053 -11.026,33.079 -33.08,33.079l-236.94,0l-0,173.09l221.555,0c22.053,0 33.079,10.513 33.079,31.541c-0,22.052 -11.026,33.079 -33.079,33.079l-221.555,0l-0,203.092c-0,28.207 -12.565,42.311 -37.695,42.311Zm517.755,1.539c-40.003,-0 -70.262,-11.54 -90.776,-34.618c-20.001,-23.079 -30.002,-56.928 -30.002,-101.546l0,-379.259c0,-26.156 12.821,-39.234 38.464,-39.234c26.156,-0 39.234,13.078 39.234,39.234l0,374.643c0,50.773 20.514,76.159 61.543,76.159c4.616,0 8.718,-0.256 12.309,-0.769c3.589,-0.512 7.179,-0.769 10.77,-0.769c6.154,-0.513 10.513,1.282 13.078,5.385c2.563,3.59 3.846,11.282 3.846,23.079c0,21.027 -9.745,33.079 -29.233,36.156c-5.129,0.513 -10.257,0.769 -15.386,0.769c-4.615,0.513 -9.231,0.77 -13.847,0.77Zm273.695,-0c-37.949,-0 -70.771,-7.95 -98.466,-23.848c-27.694,-15.899 -49.234,-38.208 -64.62,-66.928c-14.873,-29.233 -22.309,-63.851 -22.309,-103.854c-0,-40.003 7.436,-74.364 22.309,-103.085c15.386,-29.233 36.926,-51.799 64.62,-67.697c27.695,-15.898 60.517,-23.848 98.466,-23.848c36.926,-0 69.236,7.95 96.931,23.848c27.694,15.898 49.234,38.464 64.62,67.697c15.385,28.721 23.078,63.082 23.078,103.085c0,40.003 -7.693,74.621 -23.078,103.854c-15.386,28.72 -36.926,51.029 -64.62,66.928c-27.695,15.898 -60.005,23.848 -96.931,23.848Zm0,-60.005c31.801,0 57.447,-11.539 76.929,-34.618c19.492,-23.078 29.233,-56.415 29.233,-100.007c-0,-43.593 -9.741,-76.672 -29.233,-99.238c-19.482,-23.079 -45.128,-34.618 -76.929,-34.618c-32.307,-0 -58.207,11.539 -77.695,34.618c-19.489,22.566 -29.233,55.645 -29.233,99.238c0,43.592 9.744,76.929 29.233,100.007c19.488,23.079 45.388,34.618 77.695,34.618Zm434.981,60.005c-37.955,-0 -70.775,-7.95 -98.469,-23.848c-27.695,-15.899 -49.235,-38.208 -64.62,-66.928c-14.877,-29.233 -22.31,-63.851 -22.31,-103.854c0,-40.003 7.433,-74.364 22.31,-103.085c15.385,-29.233 36.925,-51.799 64.62,-67.697c27.694,-15.898 60.514,-23.848 98.469,-23.848c36.925,-0 69.236,7.95 96.93,23.848c27.694,15.898 49.234,38.464 64.62,67.697c15.386,28.721 23.079,63.082 23.079,103.085c-0,40.003 -7.693,74.621 -23.079,103.854c-15.386,28.72 -36.926,51.029 -64.62,66.928c-27.694,15.898 -60.005,23.848 -96.93,23.848Zm-0,-60.005c31.8,0 57.436,-11.539 76.928,-34.618c19.492,-23.078 29.233,-56.415 29.233,-100.007c0,-43.593 -9.741,-76.672 -29.233,-99.238c-19.492,-23.079 -45.128,-34.618 -76.928,-34.618c-32.311,-0 -58.206,11.539 -77.698,34.618c-19.493,22.566 -29.233,55.645 -29.233,99.238c-0,43.592 9.74,76.929 29.233,100.007c19.492,23.079 45.387,34.618 77.698,34.618Zm311.125,58.466c-26.156,0 -39.234,-13.078 -39.234,-39.234l-0,-307.715c-0,-26.156 12.568,-39.234 37.695,-39.234c25.127,0 37.695,13.078 37.695,39.234l0,33.08c10.261,-23.079 25.647,-40.773 46.157,-53.081c21.031,-12.309 46.418,-19.489 76.16,-21.54c18.972,-1.539 29.233,8.719 30.771,30.771c2.048,22.566 -8.971,34.875 -33.079,36.926l-14.616,1.539c-68.207,6.666 -102.316,41.798 -102.316,105.392l0,174.628c0,26.156 -13.078,39.234 -39.233,39.234Zm296.207,0c-26.666,0 -40.003,-13.59 -40.003,-40.772l-0,-466.189c-0,-27.181 13.597,-40.772 40.772,-40.772l183.86,-0c58.466,-0 103.604,14.616 135.394,43.849c31.801,28.721 47.696,69.236 47.696,121.548c0,52.824 -15.895,93.853 -47.696,123.086c-31.79,28.72 -76.928,43.08 -135.394,43.08l-144.626,0l-0,175.398c-0,27.182 -13.328,40.772 -40.003,40.772Zm40.003,-280.021l133.086,0c77.958,0 116.932,-34.105 116.932,-102.315c0,-67.697 -38.974,-101.546 -116.932,-101.546l-133.086,-0l-0,203.861Zm525.891,281.56c-40.003,-0 -70.265,-11.54 -90.776,-34.618c-20.001,-23.079 -30.002,-56.928 -30.002,-101.546l-0,-379.259c-0,-26.156 12.818,-39.234 38.464,-39.234c26.156,0 39.234,13.078 39.234,39.234l-0,374.643c-0,50.773 20.511,76.159 61.543,76.159c4.616,0 8.722,-0.256 12.309,-0.769c3.586,-0.512 7.183,-0.769 10.77,-0.769c6.154,-0.513 10.51,1.282 13.078,5.385c2.567,3.59 3.846,11.282 3.846,23.079c-0,21.027 -9.741,33.079 -29.233,36.156c-5.125,0.513 -10.261,0.769 -15.386,0.769c-4.615,0.513 -9.231,0.77 -13.847,0.77Zm234.373,-0c-26.156,-0 -49.494,-5.129 -70.005,-15.386c-20.511,-10.258 -36.926,-24.105 -49.235,-41.542c-11.799,-17.437 -17.693,-37.182 -17.693,-59.235c-0,-27.694 6.923,-49.491 20.771,-65.389c14.356,-15.899 37.695,-27.438 70.005,-34.618c32.819,-7.181 76.929,-10.77 132.317,-10.77l26.156,-0l0,-20.002c0,-29.233 -6.154,-50.26 -18.463,-63.081c-12.308,-12.822 -32.57,-19.233 -60.774,-19.233c-16.415,0 -33.588,2.051 -51.542,6.155c-17.434,4.103 -35.647,11.026 -54.619,20.77c-10.77,5.129 -19.742,5.898 -26.925,2.308c-6.664,-3.589 -11.28,-9.231 -13.848,-16.924c-2.567,-7.693 -2.307,-15.643 0.77,-23.848c3.077,-8.205 9.491,-14.36 19.232,-18.463c22.569,-10.257 44.878,-17.693 66.928,-22.309c22.049,-5.128 42.82,-7.693 62.312,-7.693c51.283,-0 89.238,12.309 113.855,36.926c24.617,24.104 36.926,62.055 36.926,113.854l-0,197.707c-0,26.156 -12.049,39.234 -36.157,39.234c-24.617,0 -36.926,-13.078 -36.926,-39.234l0,-28.463c-9.231,21.54 -23.588,38.464 -43.08,50.773c-19.492,12.308 -42.82,18.463 -70.005,18.463Zm15.386,-55.389c27.694,-0 50.773,-9.744 69.236,-29.233c18.463,-19.489 27.694,-44.106 27.694,-73.852l0,-20.77l-25.386,-0c-37.436,-0 -66.928,1.795 -88.469,5.385c-21.03,3.589 -36.156,9.744 -45.388,18.462c-8.722,8.206 -13.077,19.745 -13.077,34.618c-0,19.489 6.663,35.388 20.001,47.696c13.338,11.796 31.801,17.694 55.389,17.694Zm316.26,53.85c-25.646,0 -38.464,-13.078 -38.464,-39.234l-0,-307.715c-0,-26.156 12.568,-39.234 37.695,-39.234c25.127,0 37.695,13.078 37.695,39.234l0,28.464c12.818,-22.566 30.262,-39.746 52.312,-51.542c22.569,-11.797 47.696,-17.694 75.39,-17.694c88.728,-0 133.087,50.26 133.087,150.78l-0,197.707c-0,26.156 -12.818,39.234 -38.465,39.234c-26.155,0 -39.233,-13.078 -39.233,-39.234l-0,-193.091c-0,-32.31 -6.415,-55.901 -19.233,-70.774c-12.308,-14.874 -31.8,-22.31 -58.465,-22.31c-31.281,0 -56.418,10.001 -75.391,30.002c-18.463,19.489 -27.694,45.388 -27.694,77.699l-0,178.474c-0,26.156 -13.078,39.234 -39.234,39.234Z" style="fill:#1e65a2;fill-rule:nonzero;"/></svg>