<?xml version="1.0" encoding="UTF-8"?> <!-- Generator: Adobe Illustrator 24.3.0, SVG Export Plug-In . SVG Version: 6.00 Build 0) --> <svg xmlns="http://www.w3.org/2000/svg" xmlns:xlink="http://www.w3.org/1999/xlink" version="1.1" id="Layer_1" x="0px" y="0px" viewBox="0 0 963.67 293.67" style="enable-background:new 0 0 963.67 293.67;" xml:space="preserve"> <style type="text/css"> .st0{fill-rule:evenodd;clip-rule:evenodd;fill:#242424;} .st1{fill-rule:evenodd;clip-rule:evenodd;fill:#1E78AE;} .st2{fill-rule:evenodd;clip-rule:evenodd;fill:#3083B4;} .st3{fill-rule:evenodd;clip-rule:evenodd;fill:#82B2D0;} .st4{fill-rule:evenodd;clip-rule:evenodd;fill:#589AC1;} .st5{fill-rule:evenodd;clip-rule:evenodd;fill:#BFD7E6;} .st6{fill-rule:evenodd;clip-rule:evenodd;fill:#5698C0;} .st7{fill-rule:evenodd;clip-rule:evenodd;fill:#3588B7;} </style> <g> <g> <path class="st0" d="M476.24,215.13h36.92V85.75h-47.36L428,156.62l-2.61,6.79h-0.17l-2.61-6.79l-37.96-70.87h-47.19v129.38h36.92 v-76.09l-0.35-8.71h0.17l2.61,6.96l33.09,59.73h30.65l33.08-59.73l2.79-6.96h0.18l-0.35,8.71V215.13z M644.95,146.87v-0.17 c19.16-3.66,27.51-14.8,27.51-29.78v-0.17c0-22.29-18.63-31-47.19-31h-83.93v129.38h84.63c31.52,0,52.24-10.1,52.24-36.22v-0.17 C678.21,161.5,666.02,149.83,644.95,146.87z M580.35,114.14h39.35c11.14,0,15.85,3.83,15.85,11.14c0,7.66-5.05,11.49-17.24,11.49 h-37.96V114.14z M619.35,186.75h-39.01v-25.42h37.44c13.93,0,20.2,4.18,20.2,12.71C637.98,182.57,632.41,186.75,619.35,186.75z M837.35,215.13h36.91V85.75H826.9l-37.79,70.87l-2.61,6.79h-0.17l-2.61-6.79l-37.96-70.87h-47.19v129.38h36.92v-76.09l-0.35-8.71 h0.17l2.61,6.96L771,197.02h30.65l33.08-59.73l2.79-6.96h0.17l-0.35,8.71V215.13z M345.11,245.63c-4.92-0.62-6.02-1.64-6.02-3.56 c0-1.67,1.5-3.16,5.85-3.16c4.75,0,6.22,2.03,6.41,4.21h3.16c-0.31-3.9-3.16-6.72-9.69-6.72c-6.44,0-9.1,2.51-9.1,5.62 c0,3.33,1.86,5.2,8.79,6.13c5.73,0.79,7.01,1.64,7.01,4.01c0,2.29-2.01,3.53-6.27,3.53c-5.45,0-6.95-2.29-7.03-4.41h-3.28 c0.17,3.9,3.25,6.92,10.31,6.92c6.16,0,9.63-2.06,9.63-6.1C354.88,248.65,353.07,246.65,345.11,245.63z M406.75,249.78 c-0.37,3.64-3.76,5.79-8.19,5.79c-5.03,0-8.33-2.82-8.33-8.16v-0.23c0-5.37,3.3-8.16,8.33-8.16c4.55,0,7.66,2.48,8.11,5.71v0.03 h3.31v-0.06c-0.42-4.66-4.69-8.31-11.44-8.31c-7.18,0-11.69,3.79-11.69,10.82v0.14c0,7.06,4.49,10.85,11.69,10.85 c6.84,0,11.13-3.62,11.5-8.45v-0.03h-3.28V249.78z M449.98,236.79l-9.75,20.99h3.67l2.43-5.45h11.61l2.43,5.45h3.7l-9.77-20.99 H449.98z M447.44,249.87l4.41-9.92l0.28-0.79h0.06l0.28,0.79l4.41,9.92H447.44z M496.69,257.78h3.36v-8.9h13.3v-2.63h-13.3v-6.86 h14.46v-2.6h-17.82V257.78z M547.51,257.78h3.36v-8.9h13.31v-2.63h-13.31v-6.86h14.46v-2.6h-17.83V257.78z M608,236.39 c-7.43,0-11.95,3.76-11.95,10.79v0.14c0,7.09,4.52,10.88,11.98,10.88c7.43,0,11.95-3.78,11.95-10.88v-0.14 C619.98,240.15,615.46,236.39,608,236.39z M616.59,247.38c0,5.31-3.33,8.19-8.56,8.19c-5.25,0-8.59-2.82-8.59-8.19v-0.23 c0-5.34,3.33-8.13,8.59-8.13c5.23,0,8.56,2.82,8.56,8.13V247.38z M657,236.79h-3.36v20.99h16.67v-2.63H657V236.79z M714.15,236.79 h-10.74v20.99h10.74c7.8,0,11.27-4.35,11.27-10.51v-0.11C725.42,240.94,721.72,236.79,714.15,236.79z M722.06,247.35 c0,5.4-3.42,7.8-8.39,7.8h-6.89v-15.73h6.86c5.23,0,8.42,2.51,8.42,7.68V247.35z M759.1,257.78h3.36v-20.99h-3.36V257.78z M816.09,253.68l-0.34-0.51l-14.38-16.38h-3.64v20.99h3.25v-16.86l0.31,0.51l14.38,16.36h3.64v-20.99h-3.22V253.68z M864.86,236.39c-7.35,0-11.89,3.79-11.89,10.85v0.23c0,7.01,4.58,10.73,11.89,10.73c6.81,0,11.24-3.78,11.24-10.14v-1.02h-12.26 v2.4h9.07l-0.03,0.08c-0.4,4.01-3.98,6.05-8.02,6.05c-5.17,0-8.5-2.8-8.5-8.05v-0.37c0-5.34,3.3-8.13,8.5-8.13 c4.32,0,7.54,2.34,7.91,5.23v0.08h3.33v-0.08C875.79,239.89,871.27,236.39,864.86,236.39z M890.56,85.73h-3.29v20.52h16.29v-2.57 h-13.01V85.73z M900.35,88.33h8.56v17.92h3.29V88.33h8.56v-2.6h-20.41V88.33z M934.26,85.73h-10.5v20.52h10.5 c7.62,0,11.02-4.25,11.02-10.28v-0.11C945.28,89.79,941.66,85.73,934.26,85.73z M941.99,96.06c0,5.28-3.34,7.62-8.2,7.62h-6.74 V88.3h6.71c5.11,0,8.23,2.46,8.23,7.51V96.06z"></path> </g> <g> <path class="st1" d="M19.44,140.39c2.77-37.66,18.76-68.65,47.26-93.81c0,68.36,0,136.29,0,204.7 c-28.5-25.13-44.49-56.11-47.26-93.79c-0.28-0.5,0.1-1.11-0.27-1.6c0-0.32,0-0.63,0-0.95c0.34-0.59,0.08-1.24,0.16-1.86 c-0.07-0.54,0.17-1.11-0.16-1.62c0-1.68,0-3.37,0-5.05c0.33-0.51,0.09-1.08,0.16-1.61c-0.08-0.62,0.18-1.27-0.16-1.86 c0-0.32,0-0.63,0-0.95C19.54,141.51,19.15,140.89,19.44,140.39z"></path> <path class="st1" d="M160.97,15.35c1.36,0.62,2.85,0.45,4.27,0.58c15.54,1.44,30.35,5.52,44.47,12.14 c0.14,0.07,0.26,0.18,0.56,0.4c-2.16,1.88-4.26,3.73-6.38,5.56c-11.34,9.8-22.68,19.6-34.03,29.39 c-5.18,4.47-10.37,8.91-15.52,13.41c-0.68,0.6-1,0.49-1.62-0.05c-10.73-9.3-21.48-18.58-32.23-27.86 c-7.72-6.67-15.43-13.35-23.18-19.99c-0.96-0.82-1.06-1.11,0.21-1.68c12.75-5.73,26.04-9.48,39.94-10.99 c2.25-0.24,4.5-0.43,6.75-0.64c0.51-0.21,1.05-0.06,1.57-0.11c0.52,0,1.05,0,1.58,0c0.52,0,1.04,0,1.56,0 c0.75-0.08,1.53,0.18,2.26-0.16c1.05,0,2.11,0,3.16,0c0.72,0.35,1.48,0.08,2.22,0.16c0.5,0,1.01,0,1.51,0 c0.65-0.08,1.33,0.18,1.96-0.16C160.33,15.35,160.65,15.35,160.97,15.35z"></path> <path class="st2" d="M151.18,15.35c-0.67,0.6-1.48,0.2-2.22,0.31c-0.1-0.07-0.13-0.14-0.09-0.21c0.03-0.07,0.07-0.1,0.1-0.1 C149.7,15.35,150.44,15.35,151.18,15.35z"></path> <path class="st2" d="M156.55,15.66c-0.74-0.11-1.55,0.29-2.22-0.31c0.74,0,1.47,0,2.21,0c0.1,0.07,0.14,0.13,0.11,0.2 C156.62,15.62,156.59,15.66,156.55,15.66z"></path> <path class="st3" d="M160.02,15.35c-0.54,0.63-1.26,0.18-1.88,0.3c-0.11-0.06-0.15-0.12-0.12-0.19c0.03-0.07,0.07-0.1,0.1-0.1 C158.76,15.35,159.39,15.35,160.02,15.35z"></path> <path class="st4" d="M19.17,142.94c0.61,0.55,0.2,1.25,0.3,1.88c-0.09,0.15-0.19,0.16-0.3,0.01 C19.17,144.2,19.17,143.57,19.17,142.94z"></path> <path class="st4" d="M19.47,153.06c-0.1,0.63,0.31,1.33-0.3,1.88c0-0.63,0-1.26,0-1.89C19.28,152.9,19.38,152.9,19.47,153.06z"></path> <path class="st5" d="M145.78,15.61c-0.52,0-1.04,0.01-1.57,0.01c0.01-0.09,0.02-0.18,0.02-0.27c0.53,0,1.05,0,1.58,0 c0.11,0.07,0.14,0.13,0.1,0.19C145.86,15.58,145.82,15.61,145.78,15.61z"></path> <path class="st3" d="M145.78,15.61c0.01-0.09,0.02-0.17,0.03-0.26c0.53,0,1.05,0,1.58,0c0.1,0.07,0.14,0.14,0.1,0.2 c-0.04,0.06-0.07,0.09-0.11,0.09C146.84,15.63,146.31,15.62,145.78,15.61z"></path> <path class="st6" d="M147.37,15.65c0.01-0.1,0.01-0.2,0.01-0.3c0.53,0,1.05,0,1.58,0c0,0.1,0,0.21-0.01,0.31 C148.43,15.66,147.9,15.65,147.37,15.65z"></path> <path class="st6" d="M158.12,15.35c0,0.1,0,0.2,0.01,0.3c-0.53,0-1.06,0.01-1.58,0.01c-0.01-0.1-0.01-0.21-0.01-0.31 C157.07,15.35,157.6,15.35,158.12,15.35z"></path> <path class="st5" d="M19.44,140.39c0.01,0.55,0.26,1.14-0.27,1.6c0-0.53,0-1.05,0-1.58C19.26,140.4,19.35,140.39,19.44,140.39z"></path> <path class="st7" d="M19.17,144.83c0.1,0,0.2-0.01,0.3-0.01c-0.05,0.54,0.22,1.14-0.3,1.59 C19.17,145.89,19.17,145.36,19.17,144.83z"></path> <path class="st7" d="M19.47,153.06c-0.1-0.01-0.2-0.01-0.3-0.01c0-0.53,0-1.05,0-1.58C19.69,151.92,19.42,152.52,19.47,153.06z"></path> <path class="st5" d="M19.17,155.89c0.53,0.46,0.28,1.05,0.27,1.6c-0.09,0-0.18,0-0.27-0.02 C19.17,156.94,19.17,156.41,19.17,155.89z"></path> <path class="st1" d="M221.17,135.92c-5.68-4.9-11.18-9.63-16.66-14.38c-8.67-7.5-17.35-14.99-26-22.52 c-0.7-0.61-1.09-0.45-1.7,0.09c-4.19,3.68-8.39,7.35-12.64,10.95c-0.85,0.72-0.96,1.07-0.07,1.83c3.53,2.99,7.01,6.05,10.51,9.07 c8.92,7.7,17.84,15.4,26.76,23.09c2.27,1.96,4.52,3.94,6.82,5.86c0.73,0.61,0.82,0.93-0.01,1.62 c-10.94,9.13-21.85,18.3-32.77,27.46c-6.89,5.78-13.8,11.54-20.64,17.36c-0.97,0.83-1.5,0.79-2.46-0.01 c-12.1-10.2-24.24-20.35-36.37-30.53c-5.68-4.76-11.33-9.57-17.04-14.29c-0.86-0.71-0.67-1.02,0.02-1.62 c7.53-6.49,15.04-12.99,22.56-19.49c7.35-6.37,14.69-12.74,22.06-19.1c7.76-6.7,15.55-13.36,23.31-20.06 c6.96-6.01,13.88-12.08,20.84-18.09c7.8-6.74,15.62-13.44,23.43-20.16c2.75-2.37,5.49-4.74,8.24-7.11 c0.54-0.47,1.02-1.04,1.82-1.32C221.17,74.98,221.17,105.31,221.17,135.92z"></path> <path class="st1" d="M240.32,249.47c0-67.02,0-134.03,0-201.52c25.52,22.96,41.12,50.94,44.93,84.76 c5.24,46.46-10.48,85.28-44.4,116.94C240.68,249.59,240.5,249.53,240.32,249.47z"></path> <path class="st1" d="M221.23,165.5c0,29.71,0,58.97,0,88.55c-2.23-1.86-4.31-3.57-6.37-5.31c-11.93-10.01-23.85-20.01-35.76-30.03 c-0.75-0.63-1.21-0.61-1.97,0.04c-4.19,3.59-8.42,7.14-12.7,10.63c-1.06,0.86-0.91,1.26,0.06,2.07 c15.05,12.58,30.08,25.19,45.1,37.8c0.08,0.06,0.13,0.16,0.35,0.43c-17.95,8.48-36.77,12.72-56.52,12.82 c-19.8,0.1-38.7-4.01-56.96-12.4C138.05,235.23,179.5,200.48,221.23,165.5z"></path> <path class="st1" d="M85.87,135.91c0-30.61,0-60.92,0-91.38c1.54,0.78,2.61,2.02,3.81,3.05c15.38,13.25,30.74,26.53,46.1,39.8 c0.48,0.41,0.93,0.85,1.41,1.27c1.71,1.48,1.73,1.5-0.03,3.02c-12.74,11-25.49,21.99-38.23,32.98 c-4.06,3.51-8.11,7.02-12.17,10.53C86.54,135.38,86.3,135.56,85.87,135.91z"></path> <path class="st1" d="M85.9,253.98c0-29.51,0-58.8,0-88.4c2.55,2.13,4.91,4.09,7.26,6.06c11.49,9.62,22.97,19.25,34.45,28.87 c3.34,2.8,6.66,5.64,10.05,8.38c0.96,0.78,0.74,1.14-0.08,1.83c-8.11,6.77-16.19,13.58-24.29,20.37 c-8.9,7.47-17.82,14.92-26.73,22.38C86.42,253.61,86.25,253.72,85.9,253.98z"></path> </g> </g> </svg> 