<?xml version="1.0" standalone="no"?>
<!DOCTYPE svg PUBLIC "-//W3C//DTD SVG 1.1//EN" "http://www.w3.org/Graphics/SVG/1.1/DTD/svg11.dtd">
<svg xmlns="http://www.w3.org/2000/svg" width="170" height="53" viewBox="0 0 170 53" fill="none">
<path d="M26.5507 15.3711V0H33.9131V19.597C33.9131 20.1542 33.7137 20.6651 33.3149 21.1295C32.9467 21.5938 32.4559 21.9963 31.8424 22.3368C31.2595 22.6464 30.6153 22.8941 29.9098 23.0799C29.2349 23.2656 28.5753 23.3585 27.9311 23.3585H25.6764C25.3389 23.3585 24.9555 23.2501 24.526 23.0334C24.1272 22.8167 23.5597 22.3988 22.8234 21.7796C22.0872 21.1604 21.1362 20.309 19.9705 19.2255C18.8048 18.1419 17.317 16.7333 15.5071 14.9996C13.7278 13.2659 11.5651 11.1762 9.01894 8.73041C6.50345 6.2537 3.49714 3.34356 0 0H9.43308C12.0713 2.44575 14.2953 4.52 16.1053 6.22274C17.9459 7.89452 19.449 9.30315 20.6147 10.4486C21.8111 11.5632 22.7314 12.4455 23.3756 13.0956C24.0505 13.7148 24.5567 14.1792 24.8941 14.4888C25.2316 14.7984 25.4616 14.9996 25.5843 15.0925C25.7071 15.1544 25.8298 15.1853 25.9525 15.1853L26.5507 15.3711Z" fill="black"/>
<path d="M46.5208 14.5352H71.1849V8.82329H48.6375C48.1467 8.82329 47.8399 8.66849 47.7172 8.3589C47.6252 8.04932 47.5792 7.73973 47.5792 7.43014C47.5792 7.08959 47.6405 6.82644 47.7632 6.64069C47.8859 6.45493 48.162 6.28466 48.5915 6.12986H71.1849V0H41.9193C41.4285 0.0928774 41.045 0.216713 40.7689 0.371506C40.5235 0.495342 40.3241 0.650137 40.1707 0.835891C40.0174 1.02164 39.8947 1.2074 39.8026 1.39315C39.7413 1.5789 39.6492 1.76466 39.5265 1.95041V8.91617C38.7289 9.16384 38.1614 9.50438 37.824 9.93781C37.5172 10.3403 37.3178 10.8047 37.2258 11.331V21.4081C37.3485 21.5938 37.4405 21.7796 37.5019 21.9653C37.5939 22.1511 37.7166 22.3368 37.87 22.5226C38.0234 22.7084 38.2228 22.8786 38.4682 23.0334C38.7443 23.1573 39.1277 23.2656 39.6186 23.3585H71.1849V17.2286H46.4288C45.9993 17.0738 45.6925 16.9036 45.5085 16.7178C45.3551 16.5321 45.2784 16.2999 45.2784 16.0212C45.2784 15.6807 45.3398 15.3556 45.4625 15.046C45.6159 14.7055 45.9686 14.5352 46.5208 14.5352Z" fill="black"/>
<path d="M74.7992 17.1822V23.3585H105.307C106.135 23.3585 106.795 23.1882 107.286 22.8477C107.777 22.4762 108.129 22.0273 108.344 21.501C108.59 20.9437 108.743 20.34 108.804 19.6899C108.866 19.0397 108.896 18.4205 108.896 17.8323V14.6745C108.896 14.0553 108.82 13.4052 108.666 12.7241C108.544 12.0121 108.329 11.3774 108.022 10.8201C107.746 10.2319 107.378 9.75206 106.918 9.38055C106.458 9.00904 105.921 8.82329 105.307 8.82329H83.8642C83.0666 8.66849 82.6678 8.20411 82.6678 7.43014C82.7598 7.02767 82.8672 6.74904 82.9899 6.59425C83.1126 6.43945 83.404 6.28466 83.8642 6.12986H108.666V0H78.5264C77.7902 0 77.1613 0.170274 76.6398 0.510822C76.149 0.85137 75.7502 1.30027 75.4434 1.85753C75.1366 2.38384 74.9219 2.98753 74.7992 3.66863C74.6765 4.31877 74.6151 4.95342 74.6151 5.5726V11.7025C74.6458 12.043 74.7839 12.3681 75.0293 12.6777C75.2747 12.9563 75.5661 13.2195 75.9036 13.4671C76.2717 13.7148 76.6551 13.9315 77.0539 14.1173C77.4834 14.2721 77.8822 14.3959 78.2503 14.4888H99.5553C100.015 14.5816 100.322 14.7519 100.476 14.9996C100.629 15.2473 100.706 15.5414 100.706 15.8819C100.614 16.2225 100.506 16.5011 100.384 16.7178C100.261 16.9345 99.9847 17.0893 99.5553 17.1822H74.7992Z" fill="black"/>
<path d="M125.201 6.12986V23.3585H133.162V6.12986H146.184V0H112.317V6.12986H125.201Z" fill="black"/>
<path d="M164.018 0C164.662 0 165.322 0.0928769 165.997 0.278631C166.702 0.464384 167.346 0.727534 167.929 1.06808C168.543 1.37767 169.034 1.76466 169.402 2.22904C169.801 2.69342 170 3.20425 170 3.76151V23.3585H162.638V19.597H149.569L145.428 23.3585H136.087C139.431 20.0768 142.33 17.2286 144.784 14.8138C147.269 12.3681 149.401 10.2938 151.18 8.5911C152.959 6.8574 154.432 5.43329 155.597 4.31877C156.763 3.20425 157.729 2.3374 158.496 1.71822C159.263 1.06808 159.877 0.619178 160.337 0.371506C160.797 0.123835 161.196 0 161.533 0H164.018ZM162.039 8.17315C161.917 8.14219 161.825 8.12671 161.763 8.12671C161.733 8.09575 161.717 8.08027 161.717 8.08027C161.472 8.08027 161.226 8.18863 160.981 8.40534C160.736 8.62205 160.506 8.80781 160.291 8.9626L155.229 13.9779H162.039V8.17315Z" fill="black"/>
<path d="M53.8869 47.564L51.7163 43.2099C53.1688 42.7206 53.7563 41.6933 53.7563 39.9973C53.7563 37.5348 52.4997 36.4748 49.2031 36.4748H46.0859V47.564H48.2728V43.5197H49.4642L51.4389 47.564H53.8869ZM48.2728 38.5459H49.4968C50.9819 38.5459 51.5042 38.9046 51.5042 40.0136C51.5042 41.1062 50.9819 41.4813 49.4968 41.4813H48.2728V38.5459Z" fill="#7500CB"/>
<path d="M63.0858 38.5296V36.4748H55.9376V38.5296H58.4019V45.5093H55.9376V47.564H63.0858V45.5093H60.6214V38.5296H63.0858Z" fill="#7500CB"/>
<path d="M65.6098 47.564H69.2491C71.7624 47.564 73.1496 46.6671 73.1496 43.6339V40.356C73.1496 37.7468 71.844 36.4748 69.2165 36.4748H65.6098V47.564ZM67.8619 45.493V38.5459H69.2491C70.4078 38.5459 70.8974 38.9862 70.8974 40.2582V43.7317C70.8974 45.02 70.4242 45.493 69.2491 45.493H67.8619Z" fill="#7500CB"/>
<path d="M75.5267 47.564H82.887V45.444H77.7136V42.949H82.1853V40.8616H77.7136V38.5948H82.887V36.4748H75.5267V47.564Z" fill="#7500CB"/>
<path d="M92.6571 36.4748H85.3131V47.564H87.5653V43.0305H92.0696V40.9431H87.5653V38.5948H92.6571V36.4748Z" fill="#7500CB"/>
<path d="M100.714 47.564H103.031L100.306 36.377H96.7478L94.0224 47.564H96.1766L96.7315 45.2483H100.175L100.714 47.564ZM98.5593 37.812L99.7344 43.324H97.1884L98.3961 37.812H98.5593Z" fill="#7500CB"/>
<path d="M111.855 38.5296V36.4748H104.706V38.5296H107.171V45.5093H104.706V47.564H111.855V45.5093H109.39V38.5296H111.855Z" fill="#7500CB"/>
<path d="M122.163 47.564L119.993 43.2099C121.445 42.7206 122.033 41.6933 122.033 39.9973C122.033 37.5348 120.776 36.4748 117.479 36.4748H114.362V47.564H116.549V43.5197H117.74L119.715 47.564H122.163ZM116.549 38.5459H117.773C119.258 38.5459 119.78 38.9046 119.78 40.0136C119.78 41.1062 119.258 41.4813 117.773 41.4813H116.549V38.5459Z" fill="#7500CB"/>
</svg>